<?xml version="1.0" encoding="UTF-8" standalone="no"?>
<svg
   xmlns:dc="http://purl.org/dc/elements/1.1/"
   xmlns:cc="http://creativecommons.org/ns#"
   xmlns:rdf="http://www.w3.org/1999/02/22-rdf-syntax-ns#"
   xmlns:svg="http://www.w3.org/2000/svg"
   xmlns="http://www.w3.org/2000/svg"
   xmlns:sodipodi="http://sodipodi.sourceforge.net/DTD/sodipodi-0.dtd"
   xmlns:inkscape="http://www.inkscape.org/namespaces/inkscape"
   version="1.1"
   id="svg10"
   width="1109"
   height="931"
   viewBox="0 0 1109 931"
   sodipodi:docname="logo.svg"
   inkscape:version="1.0.2-2 (e86c870879, 2021-01-15)">
  <metadata
     id="metadata16">
    <rdf:RDF>
      <cc:Work
         rdf:about="">
        <dc:format>image/svg+xml</dc:format>
        <dc:type
           rdf:resource="http://purl.org/dc/dcmitype/StillImage" />
        <dc:title></dc:title>
      </cc:Work>
    </rdf:RDF>
  </metadata>
  <defs
     id="defs14">
    <inkscape:path-effect
       effect="bspline"
       id="path-effect1201"
       is_visible="true"
       lpeversion="1"
       weight="33.333333"
       steps="2"
       helper_size="0"
       apply_no_weight="true"
       apply_with_weight="true"
       only_selected="false" />
    <inkscape:path-effect
       effect="bend_path"
       id="path-effect1181"
       is_visible="true"
       lpeversion="1"
       bendpath="m 336.51974,331.06883 c 36.05125,-194.90574 323.8335,-194.63312 357.31982,-2.20906"
       prop_scale="1"
       scale_y_rel="false"
       vertical="false"
       hide_knot="false"
       bendpath-nodetypes="cc" />
    <rect
       x="906.10191"
       y="107.06675"
       width="650.99225"
       height="47.585221"
       id="rect1148" />
    <rect
       x="302.03397"
       y="264.36234"
       width="475.76718"
       height="69.66943"
       id="rect1142" />
    <inkscape:path-effect
       effect="bspline"
       id="path-effect1107"
       is_visible="true"
       lpeversion="1"
       weight="33.333333"
       steps="2"
       helper_size="0"
       apply_no_weight="true"
       apply_with_weight="true"
       only_selected="false" />
    <inkscape:path-effect
       effect="bspline"
       id="path-effect1095"
       is_visible="true"
       lpeversion="1"
       weight="33.333333"
       steps="2"
       helper_size="0"
       apply_no_weight="true"
       apply_with_weight="true"
       only_selected="false" />
    <inkscape:path-effect
       effect="bspline"
       id="path-effect1087"
       is_visible="true"
       lpeversion="1"
       weight="33.333333"
       steps="2"
       helper_size="0"
       apply_no_weight="true"
       apply_with_weight="true"
       only_selected="false" />
    <inkscape:path-effect
       effect="bspline"
       id="path-effect1083"
       is_visible="true"
       lpeversion="1"
       weight="33.333333"
       steps="2"
       helper_size="0"
       apply_no_weight="true"
       apply_with_weight="true"
       only_selected="false" />
    <inkscape:path-effect
       effect="bspline"
       id="path-effect1079"
       is_visible="true"
       lpeversion="1"
       weight="33.333333"
       steps="2"
       helper_size="0"
       apply_no_weight="true"
       apply_with_weight="true"
       only_selected="false" />
    <inkscape:path-effect
       effect="bspline"
       id="path-effect1075"
       is_visible="true"
       lpeversion="1"
       weight="33.333333"
       steps="2"
       helper_size="0"
       apply_no_weight="true"
       apply_with_weight="true"
       only_selected="false" />
    <inkscape:path-effect
       effect="bspline"
       id="path-effect1067"
       is_visible="true"
       lpeversion="1"
       weight="33.333333"
       steps="2"
       helper_size="0"
       apply_no_weight="true"
       apply_with_weight="true"
       only_selected="false" />
    <inkscape:path-effect
       effect="bspline"
       id="path-effect1047"
       is_visible="true"
       lpeversion="1"
       weight="33.333333"
       steps="2"
       helper_size="0"
       apply_no_weight="true"
       apply_with_weight="true"
       only_selected="false" />
    <inkscape:path-effect
       effect="bspline"
       id="path-effect1043"
       is_visible="true"
       lpeversion="1"
       weight="33.333333"
       steps="2"
       helper_size="0"
       apply_no_weight="true"
       apply_with_weight="true"
       only_selected="false" />
    <inkscape:path-effect
       effect="bspline"
       id="path-effect1039"
       is_visible="true"
       lpeversion="1"
       weight="33.333333"
       steps="2"
       helper_size="0"
       apply_no_weight="true"
       apply_with_weight="true"
       only_selected="false" />
    <inkscape:path-effect
       effect="bspline"
       id="path-effect1035"
       is_visible="true"
       lpeversion="1"
       weight="33.333333"
       steps="2"
       helper_size="0"
       apply_no_weight="true"
       apply_with_weight="true"
       only_selected="false" />
    <inkscape:path-effect
       effect="bspline"
       id="path-effect1031"
       is_visible="true"
       lpeversion="1"
       weight="33.333333"
       steps="2"
       helper_size="0"
       apply_no_weight="true"
       apply_with_weight="true"
       only_selected="false" />
    <inkscape:path-effect
       effect="bspline"
       id="path-effect1027"
       is_visible="true"
       lpeversion="1"
       weight="33.333333"
       steps="2"
       helper_size="0"
       apply_no_weight="true"
       apply_with_weight="true"
       only_selected="false" />
    <inkscape:path-effect
       effect="bspline"
       id="path-effect1023"
       is_visible="true"
       lpeversion="1"
       weight="33.333333"
       steps="2"
       helper_size="0"
       apply_no_weight="true"
       apply_with_weight="true"
       only_selected="false" />
    <inkscape:path-effect
       effect="bspline"
       id="path-effect1019"
       is_visible="true"
       lpeversion="1"
       weight="33.333333"
       steps="2"
       helper_size="0"
       apply_no_weight="true"
       apply_with_weight="true"
       only_selected="false" />
    <inkscape:path-effect
       effect="bspline"
       id="path-effect1015"
       is_visible="true"
       lpeversion="1"
       weight="33.333333"
       steps="2"
       helper_size="0"
       apply_no_weight="true"
       apply_with_weight="true"
       only_selected="false" />
    <inkscape:path-effect
       effect="bspline"
       id="path-effect1011"
       is_visible="true"
       lpeversion="1"
       weight="33.333333"
       steps="2"
       helper_size="0"
       apply_no_weight="true"
       apply_with_weight="true"
       only_selected="false" />
    <inkscape:path-effect
       effect="bspline"
       id="path-effect1007"
       is_visible="true"
       lpeversion="1"
       weight="33.333333"
       steps="2"
       helper_size="0"
       apply_no_weight="true"
       apply_with_weight="true"
       only_selected="false" />
    <inkscape:path-effect
       effect="bspline"
       id="path-effect1003"
       is_visible="true"
       lpeversion="1"
       weight="33.333333"
       steps="2"
       helper_size="0"
       apply_no_weight="true"
       apply_with_weight="true"
       only_selected="false" />
    <inkscape:path-effect
       effect="bspline"
       id="path-effect999"
       is_visible="true"
       lpeversion="1"
       weight="33.333333"
       steps="2"
       helper_size="0"
       apply_no_weight="true"
       apply_with_weight="true"
       only_selected="false" />
    <inkscape:path-effect
       effect="bspline"
       id="path-effect991"
       is_visible="true"
       lpeversion="1"
       weight="33.333333"
       steps="2"
       helper_size="0"
       apply_no_weight="true"
       apply_with_weight="true"
       only_selected="false" />
    <inkscape:path-effect
       effect="bspline"
       id="path-effect987"
       is_visible="true"
       lpeversion="1"
       weight="33.333333"
       steps="2"
       helper_size="0"
       apply_no_weight="true"
       apply_with_weight="true"
       only_selected="false" />
    <inkscape:path-effect
       effect="bspline"
       id="path-effect983"
       is_visible="true"
       lpeversion="1"
       weight="33.333333"
       steps="2"
       helper_size="0"
       apply_no_weight="true"
       apply_with_weight="true"
       only_selected="false" />
    <inkscape:path-effect
       effect="bspline"
       id="path-effect979"
       is_visible="true"
       lpeversion="1"
       weight="33.333333"
       steps="2"
       helper_size="0"
       apply_no_weight="true"
       apply_with_weight="true"
       only_selected="false" />
    <inkscape:path-effect
       effect="bspline"
       id="path-effect975"
       is_visible="true"
       lpeversion="1"
       weight="33.333333"
       steps="2"
       helper_size="0"
       apply_no_weight="true"
       apply_with_weight="true"
       only_selected="false" />
  </defs>
  <sodipodi:namedview
     pagecolor="#ffffff"
     bordercolor="#666666"
     borderopacity="1"
     objecttolerance="10"
     gridtolerance="10"
     guidetolerance="10"
     inkscape:pageopacity="0"
     inkscape:pageshadow="2"
     inkscape:window-width="1920"
     inkscape:window-height="1001"
     id="namedview12"
     showgrid="false"
     inkscape:zoom="0.75653742"
     inkscape:cx="652.90908"
     inkscape:cy="469.09992"
     inkscape:window-x="-9"
     inkscape:window-y="-9"
     inkscape:window-maximized="1"
     inkscape:current-layer="layer2" />
  <g
     inkscape:groupmode="layer"
     id="layer2"
     inkscape:label="Image 1"
     style="display:inline">
    <ellipse
       style="display:inline;fill:none;fill-opacity:1;stroke:#9e9577;stroke-width:13.749;stroke-miterlimit:4;stroke-dasharray:none;stroke-opacity:1"
       id="path857"
       ry="396.03531"
       rx="397.00723"
       cy="466.59952"
       cx="580.27539" />
    <path
       style="fill:#9e9577;fill-opacity:1;stroke:#9e9577;stroke-width:1px;stroke-linecap:butt;stroke-linejoin:miter;stroke-opacity:1"
       d="m 323.6759,552.32449 c 129.11344,-1.66519 389.07897,-1.89686 518.38687,-0.25504 129.3079,1.64183 127.95942,5.15647 126.14861,11.53186 -1.81082,6.37538 -4.0839,15.6109 -11.0435,32.74229 -6.9596,17.13138 -18.60518,42.15771 -32.22878,66.50876 -13.6236,24.35104 -29.22441,48.02555 -48.55227,69.24891 -19.32786,21.22336 -42.38182,39.99467 -66.52115,56.55513 -24.13933,16.56047 -49.36277,30.90925 -75.43792,41.28638 -26.07514,10.37713 -53.00079,16.78206 -78.81398,21.65346 -25.81319,4.8714 -50.51253,8.20896 -72.76915,8.9215 -22.25662,0.71255 -42.06946,-1.20013 -62.09314,-4.43626 -20.02367,-3.23613 -40.25705,-7.79564 -59.81843,-13.89227 -19.56137,-6.09662 -38.44962,-13.73019 -55.78966,-22.23338 -17.34004,-8.5032 -33.13085,-17.87571 -49.34773,-29.23446 -16.21688,-11.35874 -32.85877,-24.70317 -45.11693,-35.15064 -12.25815,-10.44748 -20.13183,-17.99752 -26.89773,-26.42054 -6.76589,-8.42301 -12.4233,-17.71867 -21.13331,-31.22371 -8.71001,-13.50504 -20.4721,-31.21856 -30.26359,-47.37544 -9.79149,-16.15687 -17.61172,-30.75624 -22.80878,-42.69239 -5.19706,-11.93615 -7.7704,-21.20843 -9.92315,-27.83403 -2.15276,-6.62561 -3.88502,-10.60421 -4.08391,-13.47027 -0.19889,-2.86605 1.13622,-4.61836 0.93468,-7.0428 -0.20154,-2.42444 -1.94048,-5.52188 127.17295,-7.18706 z"
       id="path1199"
       inkscape:path-effect="#path-effect1201"
       inkscape:original-d="m 192.82282,550.89097 c 259.96652,-0.23066 519.93205,-0.46233 779.89659,-0.69501 -1.34754,3.51578 -2.69602,7.03042 -4.04551,10.54412 -2.27217,9.2369 -4.54525,18.47242 -6.81936,27.70712 -11.64506,25.02834 -23.29064,50.05467 -34.93745,75.08049 -15.60044,23.67647 -31.20124,47.35098 -46.80335,71.02496 -23.05388,18.77307 -46.10784,37.54438 -69.16324,56.31505 -25.22347,14.35036 -50.44692,28.69913 -75.67187,43.04719 -26.92573,6.4062 -53.85138,12.81113 -80.77855,19.21517 -24.69934,3.33871 -49.39868,6.67627 -74.09951,10.01288 -19.81265,-1.91174 -39.62549,-3.82442 -59.43973,-5.73815 -20.23319,-4.55869 -40.46657,-9.11821 -60.70135,-13.67882 -18.88801,-7.63286 -37.77626,-15.26643 -56.66587,-22.90115 -15.79044,-9.37188 -31.58125,-18.7444 -47.37336,-28.1181 -16.64157,-13.34396 -33.28347,-26.68839 -49.92669,-40.0341 -7.87301,-7.54934 -15.7467,-15.09937 -23.62153,-22.65058 -5.65665,-9.29503 -11.31405,-18.59069 -16.97256,-27.88754 -11.76157,-17.71321 -23.52365,-35.42673 -35.28696,-53.14159 -7.81955,-14.59893 -15.63978,-29.1983 -23.46115,-43.79896 -2.57244,-9.27163 -5.14577,-18.54391 -7.72015,-27.81738 -1.73134,-3.97776 -3.4636,-7.95636 -5.19688,-11.93606 1.33615,-1.75137 2.67127,-3.50367 4.00541,-5.25702 -1.73802,-3.09656 -3.47696,-6.194 -5.21693,-9.29252 z" />
  </g>
  <g
     inkscape:groupmode="layer"
     id="layer3"
     inkscape:label="Image 2"
     style="display:inline">
    <ellipse
       style="fill:#262a3f;fill-opacity:1;stroke:#262a3f;stroke-width:12.01;stroke-miterlimit:4;stroke-dasharray:none;stroke-opacity:1"
       id="path896"
       cx="584.17596"
       cy="475.45044"
       rx="260.5629"
       ry="262.60178" />
  </g>
  <g
     inkscape:groupmode="layer"
     id="layer4"
     inkscape:label="Image 3">
    <path
       style="fill:#097799;stroke:#097799;stroke-width:1px;stroke-linecap:butt;stroke-linejoin:miter;stroke-opacity:1;fill-opacity:1"
       d="m 558.27628,213.15011 c 2.2142,-1.37535 5.80671,-2.64965 9.74865,-3.25789 3.94193,-0.60824 8.2327,-0.55064 12.44077,-0.61907 4.20806,-0.0684 8.33324,-0.2628 11.9907,0.26663 3.65746,0.52942 6.84674,1.7821 9.83454,3.17458 2.9878,1.39249 5.83146,2.95614 8.30063,5.52303 2.46917,2.56689 4.59295,6.15212 5.83818,9.40265 1.24522,3.25053 1.61238,6.16623 1.53477,8.87627 -0.0776,2.71004 -0.62103,5.31695 -1.87011,7.80044 -1.24908,2.4835 -3.21448,4.89526 -4.66882,7.93734 -1.45433,3.04208 -2.39744,6.71371 -2.27819,9.53254 0.11925,2.81883 1.29993,4.78423 2.62127,6.20948 1.32134,1.42526 2.78278,2.31077 4.95325,2.51553 2.17047,0.20475 5.05018,-0.2704 8.15634,-2.30418 3.10615,-2.03379 6.43941,-5.62622 9.07793,-9.62172 2.63851,-3.9955 4.58231,-8.39425 6.27421,-13.53457 1.69189,-5.14032 3.13174,-11.02212 3.51346,-16.8895 0.38171,-5.86738 -0.29502,-11.72039 -2.57324,-16.62327 -2.27822,-4.90288 -6.15863,-8.85528 -9.93826,-11.87922 -3.77963,-3.02394 -7.45845,-5.11893 -12.38291,-6.92259 -4.92447,-1.80366 -11.09423,-3.3155 -16.39308,-4.31271 -5.29885,-0.99721 -9.7264,-1.47956 -15.17601,-1.56316 -5.4496,-0.0836 -11.98031,0.23462 -17.81919,0.97611 -5.83888,0.74149 -11.01515,1.90778 -15.72969,3.75085 -4.71453,1.84307 -9.01518,4.3916 -12.58993,7.67476 -3.57476,3.28315 -6.44726,7.31474 -9.1291,12.06654 -2.68184,4.75179 -5.17279,10.22323 -6.47533,14.67673 -1.30254,4.45351 -1.41866,7.94441 -0.42485,12.13463 0.99382,4.19023 3.096,9.10733 5.35128,13.45238 2.25529,4.34506 4.69958,8.17467 7.7488,10.75532 3.04922,2.58064 6.72084,3.94131 10.4497,3.43701 3.72887,-0.50429 7.51568,-2.87284 9.56733,-5.66931 2.05166,-2.79648 2.36843,-6.02175 1.54446,-9.36576 -0.82397,-3.34401 -2.78937,-6.80686 -4.30648,-9.52214 -1.51711,-2.71527 -2.62257,-4.75051 -3.22763,-7.2848 -0.60505,-2.5343 -0.72744,-5.60119 -0.28839,-8.43444 0.43905,-2.83324 1.43975,-5.43217 2.35769,-7.46973 0.91794,-2.03755 1.75305,-3.5134 3.96725,-4.88876 z"
       id="path973"
       inkscape:path-effect="#path-effect975"
       inkscape:original-d="m 556.8974,213.04926 c 3.59351,-1.27329 7.18602,-2.54759 10.77752,-3.82289 4.29193,0.0586 8.5827,0.1162 12.87255,0.17279 4.12634,-0.19339 8.25152,-0.38777 12.37578,-0.58315 3.1904,1.25372 6.37968,2.50639 9.56802,3.75809 2.79442,1.52011 5.63094,3.09675 8.44491,4.64362 2.12486,3.58638 4.24865,7.17161 6.37147,10.75592 0.36818,2.91682 0.73534,5.83252 1.10151,8.74728 -0.51736,2.50645 -1.06451,5.11258 -1.59827,7.66737 -1.96447,2.41285 -3.92987,4.82461 -5.89631,7.23541 -0.94214,3.67277 -1.88525,7.3444 -2.82937,11.0151 1.18173,1.96648 2.36241,3.93188 3.54211,5.89631 1.46251,0.88655 2.92396,1.77206 4.38444,2.65659 2.88082,-0.47417 5.76053,-0.94933 8.63929,-1.42549 3.3344,-3.59157 6.66766,-7.18401 9.99998,-10.77751 1.94488,-4.39793 3.88868,-8.79668 5.83152,-13.19652 1.44092,-5.88104 2.88077,-11.76284 4.31965,-17.64576 -0.67576,-5.85223 -1.35249,-11.70524 -2.03023,-17.55936 -3.87956,-3.95155 -7.75997,-7.90395 -11.64145,-11.85743 -3.67797,-2.09407 -7.3568,-4.18905 -11.03669,-6.28508 -6.16902,-1.51091 -12.33879,-3.02275 -18.50969,-4.53563 -4.42672,-0.48137 -8.85427,-0.96372 -13.28291,-1.44708 -6.4714,0.29618 -13.00113,0.63455 -19.5032,0.95032 -5.17548,1.16733 -10.35175,2.33361 -15.52913,3.49892 -4.26833,2.49204 -8.5519,5.06938 -12.82935,7.60257 -2.87162,4.03275 -5.74413,8.06434 -8.61769,12.09501 -2.49005,5.47266 -4.98099,10.9441 -7.47299,16.41466 -0.13579,3.43518 -0.22938,6.92683 -0.34557,10.38874 2.10327,4.9183 4.20545,9.8354 6.30668,14.7516 2.39845,3.78076 4.8534,7.60357 7.27861,11.40386 3.67277,1.36172 7.34439,2.72238 11.01509,4.08207 3.78797,-2.36766 7.57478,-4.73621 11.36067,-7.10582 0.31778,-3.2244 0.63455,-6.44967 0.95032,-9.67601 -1.96447,-3.46198 -3.92987,-6.92483 -5.89631,-10.38875 -1.07174,-1.96447 -2.17322,-4.00187 -3.26133,-6.0043 -0.1214,-3.06601 -0.24378,-6.1329 -0.36717,-9.20085 1.00173,-2.59804 2.00243,-5.19697 3.00215,-7.79696 0.83615,-1.47491 1.67126,-2.95076 2.50539,-4.42764 z" />
    <path
       style="fill:#097799;stroke:#097799;stroke-width:1px;stroke-linecap:butt;stroke-linejoin:miter;stroke-opacity:1;fill-opacity:1"
       d="m 563.1152,283.68304 c 3.81922,0.48923 10.2267,0.74841 16.83216,0.58636 6.60546,-0.16205 13.40877,-0.74519 18.07756,-1.25279 4.66879,-0.50759 7.20293,-0.93954 8.28608,-3.16359 1.08316,-2.22405 0.716,-6.24124 0.18329,-10.09653 -0.5327,-3.85528 -1.23103,-7.54851 -2.24693,-11.10327 -1.01589,-3.55476 -2.37477,-7.03551 -4.06648,-10.18892 -1.69172,-3.15341 -3.72911,-6.01151 -6.42152,-8.04571 -2.69242,-2.03419 -6.04008,-3.24367 -9.10365,-3.62912 -3.06357,-0.38544 -5.84248,0.0537 -8.53534,1.04362 -2.69286,0.98991 -5.299,2.53056 -7.44469,4.75905 -2.14568,2.2285 -3.83031,5.1442 -5.3998,8.86649 -1.5695,3.72229 -3.02375,8.25063 -4.23685,12.32196 -1.2131,4.07133 -2.185,7.68536 -2.51599,10.57976 -0.33099,2.89441 -0.007,5.16938 0.76742,6.64145 0.77445,1.47207 2.00553,2.192 5.82474,2.68124 z"
       id="path977"
       inkscape:path-effect="#path-effect979"
       inkscape:original-d="m 560.52591,283.91305 c 6.40847,0.26018 12.81595,0.51936 19.22242,0.77754 6.80458,-0.58216 13.60789,-1.1653 20.41033,-1.74946 2.53524,-0.43097 5.06938,-0.86293 7.60258,-1.29589 -0.36618,-4.01635 -0.73334,-8.03354 -1.10151,-12.05181 -0.69736,-3.69237 -1.39569,-7.3856 -2.09503,-11.07989 -1.32372,-3.41879 -2.69158,-6.89604 -4.03887,-10.34556 -2.03648,-2.85722 -4.07387,-5.71533 -6.1123,-8.57449 -3.34679,-1.20853 -6.69445,-2.41801 -10.04318,-3.62851 -2.77803,0.44018 -5.55694,0.87933 -8.33691,1.3175 -2.60524,1.5417 -5.21138,3.08234 -7.81856,4.62202 -1.6837,2.91682 -3.36833,5.83252 -5.05399,8.74728 -1.45331,4.52952 -2.90756,9.05786 -4.36284,13.58529 -0.97094,3.61517 -1.94284,7.2292 -2.91576,10.84231 0.31058,2.17526 0.63455,4.45023 0.95032,6.67385 1.23212,0.72096 2.4632,1.44088 3.6933,2.15982 z" />
    <path
       style="fill:#097799;stroke:#097799;stroke-width:1px;stroke-linecap:butt;stroke-linejoin:miter;stroke-opacity:1;fill-opacity:1"
       d="m 444.58654,309.86064 c 0.12247,-1.46858 0.11527,-2.90847 0.27361,-5.24837 0.15834,-2.3399 0.48231,-5.57956 2.9179,-7.95415 2.43559,-2.3746 7.04672,-3.90439 13.02976,-4.21019 5.98304,-0.3058 13.36948,0.60131 22.21407,1.90805 8.8446,1.30673 19.14674,3.01296 32.45498,4.4852 13.30824,1.47224 29.62178,2.71051 44.15028,3.38362 14.52851,0.67311 27.27122,0.7811 42.32174,0.57589 15.05052,-0.20521 32.40795,-0.72355 45.57453,-2.16118 13.16658,-1.43762 22.23264,-3.8181 29.64441,-6.13994 7.41177,-2.32185 13.21438,-4.59681 17.94472,-5.47856 4.73034,-0.88174 8.38757,-0.37059 11.58529,0.72803 3.19772,1.09863 6.00318,2.82562 7.95023,5.48968 1.94705,2.66406 3.07014,6.28529 0.60041,12.87597 -2.46973,6.59069 -8.53151,16.15132 -14.80946,25.98941 -6.27795,9.83809 -12.77169,19.95306 -18.6644,27.90836 -5.89271,7.95531 -11.18417,13.75071 -22.08374,17.03361 -10.89958,3.28289 -27.40749,4.05321 -50.04992,5.01795 -22.64243,0.96473 -51.41789,2.12381 -71.13331,2.57775 -19.71541,0.45394 -30.42842,0.20127 -39.83897,-4.57396 -9.41055,-4.77524 -17.60172,-14.13658 -24.9056,-22.72914 -7.30389,-8.59256 -13.74723,-16.44696 -18.57104,-23.82637 -4.8238,-7.37941 -8.02747,-14.2835 -9.5037,-18.48457 -1.47622,-4.20107 -1.22425,-5.69851 -1.10179,-7.16709 z"
       id="path981"
       inkscape:path-effect="#path-effect983"
       inkscape:original-d="m 444.7162,309.83093 c -0.006,-1.43888 -0.0134,-2.87876 -0.0216,-4.31965 0.32498,-3.2388 0.64895,-6.47846 0.97192,-9.7192 4.55112,-1.49651 9.15865,-3.03715 13.73647,-4.55723 7.38775,0.90815 14.77419,1.81526 22.15979,2.72138 10.30356,1.7073 20.60571,3.41352 30.90706,5.11878 16.31519,1.23932 32.62873,2.4776 48.94159,3.7149 12.74421,0.10899 25.48692,0.21698 38.22887,0.32397 17.35913,-0.51737 34.71656,-1.03571 52.07333,-1.55507 8.97165,-2.37485 18.04273,-4.73621 27.06259,-7.10582 5.80384,-2.27406 11.60645,-4.54903 17.40817,-6.82504 3.65837,0.51217 7.3156,1.02332 10.9719,1.53347 2.74403,1.6785 5.54455,3.41352 8.31532,5.11878 1.12413,3.62238 2.24722,7.24361 3.36932,10.86391 -6.06102,9.56201 -12.1228,19.12264 -18.18571,28.68245 -6.49299,10.11638 -12.98673,20.23135 -19.4816,30.34552 -5.29067,5.79664 -10.58213,11.59205 -15.8747,17.38657 -16.50758,0.77135 -33.01549,1.54168 -49.52474,2.31101 -28.77562,1.16013 -57.55108,2.31921 -86.32813,3.47732 -10.65434,-0.22939 -21.36685,-0.50296 -32.05177,-0.75594 -8.1417,-9.29362 -16.32726,-18.65987 -24.49239,-27.99131 -6.4426,-7.85371 -12.88595,-15.70811 -19.33042,-23.56367 -3.2028,-6.90337 -6.40647,-13.80746 -9.61121,-20.7127 0.25298,-1.49651 0.50496,-2.99395 0.75594,-4.49243 z" />
    <path
       style="fill:#097799;stroke:#097799;stroke-width:1px;stroke-linecap:butt;stroke-linejoin:miter;stroke-opacity:1;fill-opacity:1"
       d="m 558.20116,394.26279 c -1.45482,-0.0753 -1.34683,0.93263 -0.99051,26.77538 0.35632,25.84275 0.96106,76.51839 1.02998,101.65868 0.0689,25.14028 -0.39903,24.74432 0.76846,24.76185 1.16748,0.0175 4.06654,0.46409 7.5075,-0.41804 3.44097,-0.88213 7.47256,-3.08511 12.6418,-5.92531 5.16923,-2.8402 11.47579,-6.31745 16.51889,-9.67235 5.04309,-3.35489 8.8227,-6.58736 10.76289,-10.45657 1.94019,-3.8692 2.04098,-8.37594 2.0122,-21.53667 -0.0288,-13.16072 -0.18717,-34.97449 -0.50753,-53.90909 -0.32037,-18.9346 -0.80272,-34.98896 -1.10143,-43.39783 -0.29871,-8.40888 -0.4139,-9.172 -3.63528,-9.54693 -3.22138,-0.37493 -9.54954,-0.36053 -16.32077,0.38095 -6.77124,0.74147 -13.98491,2.21012 -19.09989,2.36521 -5.11499,0.15508 -8.13148,-1.004 -9.58631,-1.07928 z"
       id="path985"
       inkscape:path-effect="#path-effect987"
       inkscape:original-d="m 556.63823,393.1785 c 0.10899,1.00892 0.21698,2.01683 0.32397,3.02375 0.60576,50.67866 1.2105,101.3543 1.81425,152.02994 -0.46697,-0.39497 -0.93492,-0.79093 -1.40389,-1.1879 2.80163,0.44737 5.70294,0.87933 8.5529,1.31749 4.03275,-2.20206 8.06434,-4.40504 12.09501,-6.60906 6.30781,-3.47638 12.61437,-6.95363 18.92005,-10.43194 3.78077,-3.2316 7.56038,-6.46407 11.33907,-9.69761 0.1018,-4.50592 0.20259,-9.01266 0.30238,-13.52049 -0.15739,-21.81365 -0.31578,-43.62742 -0.47516,-65.44263 -0.48137,-16.05401 -0.96372,-32.10837 -1.44708,-48.16406 -0.1142,-0.76215 -0.22939,-1.52527 -0.34558,-2.28941 -6.3274,0.0154 -12.65556,0.0298 -18.98484,0.0432 -7.21295,1.46971 -14.42662,2.93836 -21.64143,4.40604 -3.01561,-1.15813 -6.0321,-2.31721 -9.04965,-3.47732 z" />
    <path
       style="fill:#097799;stroke:#097799;stroke-width:1px;stroke-linecap:butt;stroke-linejoin:miter;stroke-opacity:1;fill-opacity:1"
       d="m 554.64752,596.51231 c -0.0109,-3.65748 0.29866,-4.84539 2.05549,-6.77524 1.75683,-1.92985 4.9605,-4.60078 8.53898,-6.33588 3.57849,-1.73511 7.53088,-2.53422 11.94407,-3.78696 4.4132,-1.25274 9.2871,-2.95897 13.55615,-5.30595 4.26905,-2.34698 7.93348,-5.33468 10.30927,-7.3181 2.37579,-1.98343 3.46287,-2.96253 4.30891,-2.01877 0.84603,0.94375 1.45076,3.80906 1.80702,8.54987 0.35626,4.74081 0.46425,11.35693 0.59745,18.00205 0.13319,6.64513 0.29158,13.31884 0.94697,18.08858 0.65538,4.76973 1.80727,7.63504 3.19307,12.3579 1.38581,4.72286 3.00564,11.30299 6.48706,15.35226 3.48142,4.04926 8.82327,5.5683 13.75094,5.30163 4.92767,-0.26667 9.44161,-2.31846 14.0204,-4.78427 4.57878,-2.46581 9.2223,-5.34551 14.38799,-8.27212 5.16568,-2.9266 10.85311,-5.89989 16.68821,-9.38083 5.83511,-3.48093 11.8177,-7.46932 17.10555,-12.43683 5.28784,-4.96751 9.88097,-10.9141 13.12428,-15.62964 3.24332,-4.71555 5.13672,-8.19999 5.93961,-11.28819 0.80288,-3.08821 0.51491,-5.78073 -1.63021,-6.77126 -2.14512,-0.99053 -6.14791,-0.2778 -14.10721,3.32554 -7.95929,3.60335 -19.87407,10.09709 -23.11763,7.97704 -3.24355,-2.12004 2.18469,-12.85414 9.92779,-25.38856 7.7431,-12.53441 17.80047,-26.86815 25.53267,-38.60323 7.73221,-11.73507 13.13885,-20.87094 18.30455,-28.09933 5.1657,-7.2284 10.08999,-12.54865 13.49235,-14.7622 3.40237,-2.21354 5.28138,-1.32083 11.00093,19.74175 5.71956,21.06259 15.28019,62.29279 19.16402,84.45217 3.88384,22.15939 2.09122,25.24787 -0.42797,25.41373 -2.5192,0.16587 -5.76607,-2.59146 -9.35871,-6.4215 -3.59264,-3.83004 -7.53064,-8.73274 -11.25261,-12.04114 -3.72197,-3.3084 -7.22801,-5.02183 -10.97964,-2.0485 -3.75164,2.97332 -7.74723,10.63334 -12.42713,18.47214 -4.6799,7.8388 -10.08605,15.91911 -22.24226,26.54538 -12.15622,10.62628 -31.08309,23.82973 -46.3278,32.80021 -15.24472,8.97048 -26.80674,13.7076 -35.15426,16.0943 -8.34753,2.38671 -13.4806,2.42271 -17.50206,4.42067 -4.02145,1.99796 -6.92996,5.95757 -8.28333,8.9206 -1.35337,2.96303 -1.15179,4.92843 -4.00252,6.65567 -2.85073,1.72724 -8.75413,3.21749 -13.3652,2.57006 -4.61106,-0.64743 -7.92992,-3.43355 -9.36681,-6.01462 -1.4369,-2.58108 -0.99054,-4.95684 -8.40541,-9.10391 -7.41487,-4.14708 -22.69171,-10.06488 -33.94086,-14.29098 -11.24916,-4.2261 -18.47002,-6.76024 -27.08782,-10.81345 -8.6178,-4.0532 -18.63198,-9.62543 -28.77251,-16.8464 -10.14053,-7.22097 -20.40669,-16.09047 -29.08213,-24.80176 -8.67545,-8.71129 -15.75952,-17.26401 -19.76617,-22.52674 -4.00664,-5.26273 -4.93535,-7.23533 -6.90416,-8.39497 -1.9688,-1.15965 -4.97809,-1.50521 -10.50788,2.58049 -5.52979,4.0857 -13.57857,12.60243 -16.88672,9.64736 -3.30815,-2.95507 -1.87549,-17.3824 0.29872,-31.29187 2.17422,-13.90946 5.08992,-27.3001 8.44848,-41.34272 3.35855,-14.04262 7.15976,-28.73632 9.48065,-37.81416 2.3209,-9.07783 3.17946,-12.61397 5.13839,-13.29425 1.95893,-0.68028 5.02582,1.4579 17.97402,18.61459 12.9482,17.15668 35.77708,49.33021 46.25903,66.24104 10.48194,16.91083 8.61733,18.55946 4.61131,19.09949 -4.00602,0.54003 -10.1542,-0.0287 -16.13692,-1.02216 -5.98272,-0.99344 -11.79972,-2.41169 -15.31014,-1.75643 -3.51041,0.65527 -4.7127,3.3838 1.71355,11.00113 6.42625,7.61734 20.47921,20.12246 33.88918,29.19162 13.40997,9.06916 26.25894,14.73889 35.33366,17.18635 9.07473,2.44747 14.41658,1.69154 18.54868,-0.0147 4.13209,-1.70625 7.055,-4.36278 9.37671,-8.83691 2.32171,-4.47413 4.04233,-10.76629 4.73719,-16.97566 0.69486,-6.20937 0.36369,-12.33594 0.35277,-15.99342 z"
       id="path989"
       inkscape:path-effect="#path-effect991"
       inkscape:original-d="m 554.32721,594.04204 c 0.31058,-1.1869 0.62015,-2.37481 0.92873,-3.56371 3.2048,-2.67003 6.40847,-5.34096 9.61121,-8.01294 3.95356,-0.79815 7.90595,-1.59727 11.85743,-2.3974 4.8751,-1.7053 9.749,-3.41153 14.622,-5.11879 3.66557,-2.98681 7.33,-5.97451 10.9935,-8.96326 1.08813,-0.97814 2.17522,-1.95724 3.26133,-2.93736 0.60577,2.86642 1.2105,5.73173 1.81425,8.5961 0.109,6.61739 0.21699,13.23351 0.32398,19.84877 0.15939,6.67499 0.31777,13.3487 0.47516,20.02156 1.15293,2.86642 2.30481,5.73173 3.45572,8.59609 1.62089,6.5814 3.24073,13.16153 4.8596,19.74079 5.34307,1.5201 10.68492,3.03915 16.02588,4.55722 4.51512,-2.05087 9.02906,-4.10266 13.54209,-6.15549 4.64472,-2.87882 9.28824,-5.75853 13.93086,-8.6393 5.68865,-2.97241 11.37607,-5.94571 17.0626,-8.92006 5.98383,-3.98756 11.96642,-7.97595 17.94813,-11.96542 4.59432,-5.94584 9.18745,-11.89243 13.77967,-17.84014 1.89449,-3.48359 3.78789,-6.96803 5.68034,-10.45355 -0.28698,-2.69163 -0.57495,-5.38415 -0.86393,-8.07773 -4.00195,0.71375 -8.00474,1.42648 -12.00862,2.13822 -11.91426,6.495 -23.82904,12.98874 -35.74507,19.48161 5.42947,-10.73354 10.85771,-21.46765 16.28507,-32.20297 10.05878,-14.33331 20.11615,-28.66705 30.17273,-43.00207 5.40786,-9.13524 10.81451,-18.2711 16.22027,-27.40816 4.92549,-5.31947 9.84979,-10.63972 14.77319,-15.96109 1.88008,0.89375 3.75909,1.78646 5.63713,2.67818 9.56201,41.23285 19.12264,82.46305 28.68245,123.69307 -1.79169,3.0896 -3.5843,6.17809 -5.37796,9.26564 -3.24599,-2.75643 -6.49286,-5.51375 -9.7408,-8.27213 -3.93715,-4.90189 -7.87515,-9.80459 -11.81423,-14.70839 -3.50518,-1.71249 -7.01122,-3.42592 -10.51834,-5.14038 -3.99475,7.66133 -7.99034,15.32135 -11.98702,22.98052 -5.36986,8.0141 -10.76931,16.09888 -16.15547,24.14682 -18.92663,13.20498 -37.8535,26.40844 -56.78175,39.61115 -11.56148,4.73831 -23.1235,9.47543 -34.68676,14.21164 -5.13228,0.037 -10.26535,0.073 -15.39953,0.10799 -2.90762,3.96075 -5.81613,7.92035 -8.72569,11.87903 0.20259,1.96647 0.40417,3.93187 0.60475,5.89631 -5.90263,1.49131 -11.80603,2.98156 -17.71055,4.47084 -3.31799,-2.78523 -6.63685,-5.57135 -9.95678,-8.35852 0.44737,-2.37485 0.89373,-4.75061 1.33909,-7.12741 -15.27645,-5.91704 -30.5533,-11.83483 -45.83144,-17.75375 -7.22016,-2.53324 -14.44102,-5.06738 -21.66303,-7.60258 -10.01358,-5.57145 -20.02776,-11.14368 -30.04314,-16.71703 -10.26556,-8.86885 -20.53172,-17.73834 -30.79907,-26.60902 -7.08337,-8.55207 -14.16744,-17.10479 -21.25266,-25.65869 -0.92774,-1.97168 -1.85645,-3.94428 -2.78617,-5.91792 -3.00842,-0.34458 -6.01771,-0.69014 -9.02806,-1.03671 -8.04811,8.51807 -16.09688,17.0348 -24.14683,25.5507 1.43372,-14.4269 2.86637,-28.85423 4.29805,-43.28285 2.91682,-13.39017 5.83252,-26.78081 8.74729,-40.17271 3.80236,-14.69329 7.60357,-29.38699 11.40386,-44.08199 0.83615,-3.46198 1.70006,-6.99682 2.54859,-10.49674 3.06801,2.13927 6.1349,4.27745 9.20085,6.41468 22.83078,32.17581 45.65966,64.34933 68.48799,96.52249 -1.86369,1.6497 -3.7283,3.29833 -5.59395,4.94599 -6.14741,-0.56776 -12.29559,-1.1365 -18.44488,-1.70626 -5.81624,-1.41731 -11.63325,-2.83556 -17.45137,-4.25485 -1.20133,2.72963 -2.40361,5.45816 -3.60691,8.18573 14.05453,12.50663 28.1075,25.01175 42.15975,37.51613 12.76581,5.63825 25.6165,11.30407 38.42325,16.95461 5.34307,-0.75496 10.68492,-1.51088 16.02588,-2.26782 2.92402,-2.65563 5.84693,-5.31216 8.76889,-7.96974 1.72169,-6.29141 3.44231,-12.58357 5.16197,-18.87686 -0.33018,-6.12582 -0.66134,-12.25239 -0.99352,-18.38009 z" />
    <path
       style="fill:#9e9577;stroke:#9e9577;stroke-width:1px;stroke-linecap:butt;stroke-linejoin:miter;stroke-opacity:1;fill-opacity:1"
       d="m 622.74011,441.06916 c -3.81992,1.74226 -6.80768,5.93232 -7.09882,10.11932 -0.29115,4.18699 2.11341,8.36977 5.70593,9.72615 3.59253,1.35639 8.37285,-0.11227 11.96501,-2.39435 3.59216,-2.28207 5.99671,-5.37775 6.22389,-8.47662 0.22718,-3.09886 -1.72381,-6.20174 -5.02459,-8.10649 -3.30078,-1.90475 -7.9515,-2.61028 -11.77142,-0.86801 z"
       id="path997"
       inkscape:path-effect="#path-effect999"
       inkscape:original-d="m 621.90808,438.62118 c -2.98676,4.19105 -5.97451,8.38111 -8.96327,12.57017 2.40565,4.18394 4.81021,8.36671 7.21381,12.54857 4.7815,-1.46771 9.56182,-2.93636 14.34122,-4.40604 2.40566,-3.09481 4.81021,-6.19049 7.21381,-9.28724 -1.95008,-3.10201 -3.90108,-6.20489 -5.85312,-9.30884 -4.64991,-0.70455 -9.30063,-1.41008 -13.95245,-2.11662 z" />
    <path
       style="fill:#9e9577;stroke:#9e9577;stroke-width:1px;stroke-linecap:butt;stroke-linejoin:miter;stroke-opacity:1;fill-opacity:1"
       d="m 630.56174,468.71476 c -0.15848,-0.0863 0.84224,-1.41817 3.04575,-2.39025 2.20352,-0.97208 5.60876,-1.58401 8.69063,-0.95235 3.08187,0.63165 5.89615,2.5442 7.61632,5.83094 1.72017,3.28675 2.3753,7.96627 1.44686,10.55023 -0.92843,2.58396 -3.44098,3.07351 -6.81735,2.08398 -3.37636,-0.98952 -7.61672,-3.45886 -10.28446,-6.01802 -2.66773,-2.55916 -3.76202,-5.20849 -4.85683,-7.85908 0,0 0,0 0,0 0,0 0,0 0.64556,-0.56796 0.64557,-0.56795 1.98949,-1.75031 1.98948,-1.7503 -10e-6,10e-6 -1.31748,1.15909 -1.47596,1.07281 z"
       id="path1001"
       inkscape:path-effect="#path-effect1003"
       inkscape:original-d="m 629.40266,469.96021 c 1.00172,-1.33089 2.00244,-2.66278 3.00216,-3.99567 3.40639,-0.61097 6.81164,-1.2229 10.21596,-1.83585 2.76563,1.86568 5.57334,3.78789 8.35851,5.68033 0.65616,4.68071 1.3113,9.36023 1.96544,14.03885 -2.51164,0.49057 -5.02419,0.98012 -7.53778,1.46868 -4.23954,-2.46845 -8.4799,-4.9378 -12.72136,-7.40819 -1.09333,-2.64844 -2.18762,-5.29777 -3.28293,-7.94815 0,0 10e-4,10e-4 0,0 0,0 10e-4,10e-4 0,0 1.29692,-1.12933 2.63599,-2.31721 3.95248,-3.47732 -1.31652,1.16013 -2.63399,2.31921 -3.95248,3.47732 z" />
    <path
       style="fill:#9e9577;stroke:#9e9577;stroke-width:1px;stroke-linecap:butt;stroke-linejoin:miter;stroke-opacity:1;fill-opacity:1"
       d="m 633.67218,484.72609 c -1.19482,0.44626 -3.58502,1.33899 -4.71559,4.13302 -1.13057,2.79404 -1.00098,7.48797 0.20371,10.98149 1.20468,3.49352 3.53349,5.83688 6.21528,6.93067 2.68179,1.09379 5.74148,0.9642 7.25648,-1.40033 1.515,-2.36452 1.4862,-6.96485 0.88816,-10.56452 -0.59804,-3.59966 -1.79164,-6.25613 -3.3284,-7.84404 -1.53677,-1.5879 -3.43018,-2.13505 -4.3775,-2.4088 -0.94732,-0.27375 -0.94731,-0.27375 -2.14214,0.17251 z"
       id="path1005"
       inkscape:path-effect="#path-effect1007"
       inkscape:original-d="m 634.86701,484.27983 c -2.3892,0.89373 -4.7794,1.78646 -7.17061,2.67819 0.13059,4.6951 0.26018,9.38903 0.38877,14.08204 2.25446,2.31926 4.60862,4.63742 6.91143,6.95463 3.06081,-0.12859 6.1205,-0.25818 9.17925,-0.38877 -0.0278,-4.59951 -0.0566,-9.19984 -0.0864,-13.80127 -1.15093,-2.60523 -2.36041,-5.25457 -3.54211,-7.88335 -1.89248,-0.54617 -3.78589,-1.09331 -5.68034,-1.64147 z" />
    <path
       style="fill:#9e9577;stroke:#9e9577;stroke-width:1px;stroke-linecap:butt;stroke-linejoin:miter;stroke-opacity:1;fill-opacity:1"
       d="m 625.76746,507.98438 c -1.39019,2.04826 -3.17565,6.5263 -3.21493,11.50868 -0.0393,4.98238 1.66693,10.46823 4.39564,12.54814 2.72872,2.07992 6.47954,0.75526 7.9696,-2.69266 1.49006,-3.44791 0.71973,-9.02014 0.006,-12.38677 -0.71362,-3.36662 -1.40968,-4.59585 -2.36351,-5.93861 -0.95382,-1.34275 -2.18489,-2.833 -3.29705,-3.76923 -1.11217,-0.93624 -2.10566,-1.31781 -3.49586,0.73045 z"
       id="path1009"
       inkscape:path-effect="#path-effect1011"
       inkscape:original-d="m 626.16293,505.55409 c -1.78446,4.47903 -3.56991,8.95707 -5.35636,13.4341 1.70729,5.48706 3.41352,10.9729 5.11878,16.45785 3.75196,-1.32372 7.50278,-2.64838 11.25268,-3.97407 -0.76936,-5.57146 -1.53968,-11.14369 -2.31102,-16.71703 -0.64696,-1.16533 -1.35248,-2.38921 -2.03023,-3.58531 -1.23012,-1.48931 -2.4612,-2.97955 -3.6933,-4.47083 -0.99253,-0.38058 -1.98603,-0.76214 -2.98055,-1.14471 z" />
    <path
       style="fill:#9e9577;stroke:#9e9577;stroke-width:1px;stroke-linecap:butt;stroke-linejoin:miter;stroke-opacity:1;fill-opacity:1"
       d="m 613.08221,532.80408 c -2.3476,1.54764 -5.94011,5.05375 -8.66161,9.03532 -2.72151,3.98158 -4.57172,8.43793 -4.2723,11.81111 0.29942,3.37317 2.74717,5.66254 5.69496,5.65476 2.94779,-0.008 6.39624,-2.31155 8.57027,-5.3709 2.17403,-3.05935 3.07394,-6.87496 3.50599,-10.04978 0.43206,-3.17482 0.39606,-5.70896 0.27017,-7.56995 -0.1259,-1.861 -0.34187,-3.04888 -1.00013,-3.84836 -0.65826,-0.79949 -1.75974,-1.20984 -4.10735,0.3378 z"
       id="path1013"
       inkscape:path-effect="#path-effect1015"
       inkscape:original-d="m 614.3271,530.84562 c -3.59151,3.50711 -7.18401,7.01322 -10.77752,10.51834 -1.84928,4.45752 -3.6995,8.91387 -5.55074,13.3693 2.44884,2.29046 4.89659,4.57983 7.34339,6.86824 3.44959,-2.30286 6.89804,-4.60662 10.34556,-6.91144 0.90094,-3.81476 1.80085,-7.63037 2.69977,-11.44706 -0.035,-2.53324 -0.071,-5.06738 -0.10799,-7.60257 -0.21498,-1.18693 -0.43096,-2.37481 -0.64794,-3.56371 -1.10053,-0.40938 -2.20202,-0.81973 -3.30453,-1.2311 z" />
    <path
       style="fill:#9e9577;stroke:#9e9577;stroke-width:1px;stroke-linecap:butt;stroke-linejoin:miter;stroke-opacity:1;fill-opacity:1"
       d="m 588.67981,549.41289 c -3.63257,2.27491 -9.60808,6.94013 -12.59951,11.19918 -2.99142,4.25904 -2.99862,8.11064 -1.19841,9.49952 1.8002,1.38889 5.40704,0.31619 8.34415,-1.18125 2.9371,-1.49743 5.20487,-3.41964 6.87499,-5.61881 1.67013,-2.19916 2.74282,-4.67571 3.43891,-7.35798 0.69608,-2.68226 1.02468,-5.65425 0.5429,-7.17732 -0.48179,-1.52307 -1.77046,-1.63825 -5.40303,0.63666 z"
       id="path1017"
       inkscape:path-effect="#path-effect1019"
       inkscape:original-d="m 591.02261,547.02269 c -5.97451,4.66622 -11.95002,9.33144 -17.92653,13.99566 -0.006,3.85276 -0.0134,7.70436 -0.0216,11.55505 3.60797,-1.07173 7.21481,-2.14442 10.82071,-3.21814 2.26886,-1.92128 4.53663,-3.84348 6.80344,-5.76672 1.07374,-2.47565 2.14643,-4.9522 3.21814,-7.4298 0.33218,-2.88602 0.64895,-5.85932 0.97192,-8.79048 -1.28772,-0.11419 -2.57639,-0.22938 -3.86608,-0.34557 z" />
    <path
       style="fill:#9e9577;stroke:#9e9577;stroke-width:1px;stroke-linecap:butt;stroke-linejoin:miter;stroke-opacity:1;fill-opacity:1"
       d="m 561.64619,559.76554 c -1.45088,0.27348 -2.90516,0.78464 -5.34612,3.03104 -2.44096,2.2464 -5.86781,6.22759 -6.99071,10.45424 -1.12291,4.22665 0.0578,8.69739 1.6992,10.20499 1.64144,1.5076 3.74363,0.0533 5.4713,-1.97305 1.72767,-2.0264 3.08113,-4.62534 4.34103,-7.10554 1.25991,-2.4802 2.42619,-4.84156 3.49892,-6.86106 1.07274,-2.0195 2.05184,-3.69693 2.315,-4.98879 0.26317,-1.29186 -0.19039,-2.19897 -1.14054,-2.63514 -0.95015,-0.43618 -2.3972,-0.40018 -3.84808,-0.12669 z"
       id="path1021"
       inkscape:path-effect="#path-effect1023"
       inkscape:original-d="m 561.64901,559.52807 c -1.45328,0.51216 -2.90756,1.02331 -4.36284,1.53347 -3.42599,3.98236 -6.85284,7.96355 -10.28076,11.94382 1.18173,4.47193 2.36241,8.94267 3.54211,13.4125 2.10327,-1.45331 4.20546,-2.90756 6.30669,-4.36284 1.35451,-2.59804 2.70798,-5.19697 4.06046,-7.79696 1.16733,-2.36045 2.33361,-4.72181 3.49892,-7.08422 0.98014,-1.67649 1.95924,-3.35392 2.93736,-5.03239 -0.45257,-0.90614 -0.90613,-1.81325 -1.36069,-2.72137 -1.44611,0.037 -2.89316,0.073 -4.34125,0.10799 z" />
    <path
       style="fill:#9e9577;stroke:#9e9577;stroke-width:1px;stroke-linecap:butt;stroke-linejoin:miter;stroke-opacity:1;fill-opacity:1"
       d="m 537.8518,572.20257 c -0.53592,0.0611 -1.60863,0.18354 -3.23985,2.36885 -1.63123,2.1853 -3.81981,6.43287 -4.61876,10.67734 -0.79895,4.24446 -0.20861,8.48483 0.57416,11.20092 0.78276,2.71609 1.80975,3.97213 3.15934,4.7942 1.3496,0.82207 3.13594,1.26496 5.1115,-0.82285 1.97557,-2.08781 4.18574,-6.69534 5.30175,-10.87795 1.11601,-4.18261 1.13761,-7.94063 0.63747,-11.23788 -0.50015,-3.29725 -1.52244,-6.13377 -2.25649,-7.76455 -0.73405,-1.63079 -1.18041,-2.05555 -1.82176,-1.58792 -0.64135,0.46763 -1.47647,1.8283 -1.89395,2.5085 -0.41748,0.6802 -0.41749,0.6802 -0.95341,0.74134 z"
       id="path1025"
       inkscape:path-effect="#path-effect1027"
       inkscape:original-d="m 538.38772,572.14143 c -1.07171,0.12339 -2.14442,0.24578 -3.21814,0.36717 -2.18766,4.24874 -4.37624,8.49631 -6.56586,12.74296 0.59137,4.24154 1.18171,8.48191 1.77106,12.72136 0.98014,1.18892 2.00243,2.4488 3.00215,3.6717 1.6929,0.44737 3.48552,0.86493 5.22677,1.29589 2.21127,-4.60671 4.42144,-9.21424 6.63066,-13.82287 0.0226,-3.75716 0.0442,-7.51518 0.0648,-11.27427 -1.02133,-2.83563 -2.04363,-5.67214 -3.06694,-8.50971 -0.44538,-0.42377 -0.89173,-0.84853 -1.33909,-1.27429 -0.83415,1.36171 -1.66927,2.72238 -2.5054,4.08206 z" />
    <path
       style="fill:#9e9577;stroke:#9e9577;stroke-width:1px;stroke-linecap:butt;stroke-linejoin:miter;stroke-opacity:1;fill-opacity:1"
       d="m 521.37963,589.17582 c -1.82437,-1.54085 -5.84164,-2.89434 -8.21813,-3.006 -2.37649,-0.11166 -3.11082,1.01863 -3.85956,3.63233 -0.74874,2.6137 -1.51186,6.71008 -0.6906,10.34237 0.82125,3.6323 3.22581,6.79998 5.88979,9.12515 2.66399,2.32517 5.58689,3.80822 8.53126,4.23619 2.94436,0.42798 5.91046,-0.19836 6.49346,-2.68152 0.58301,-2.48315 -1.21681,-6.82431 -2.38456,-9.31457 -1.16776,-2.49026 -1.7548,-3.1902 -2.41955,-4.092 -0.66476,-0.90181 -1.4664,-2.08589 -1.67565,-3.52958 -0.20925,-1.4437 0.15791,-3.17153 -1.66646,-4.71237 z"
       id="path1029"
       inkscape:path-effect="#path-effect1031"
       inkscape:original-d="m 523.57133,588.98805 c -4.01627,-1.35248 -8.03354,-2.70597 -12.05181,-4.06046 -0.73335,1.13133 -1.46768,2.26161 -2.20302,3.39092 -0.76215,4.09755 -1.52527,8.19393 -2.28941,12.28939 2.40565,3.16881 4.81021,6.33648 7.21381,9.50322 2.92402,1.48411 5.84692,2.96716 8.76888,4.44924 2.96722,-0.62536 5.93331,-1.2517 8.89847,-1.87905 -1.79889,-4.34033 -3.5987,-8.68149 -5.39956,-13.02373 -0.52456,-0.64696 -1.1221,-1.33809 -1.68466,-2.00864 -0.74055,-1.15092 -1.56847,-2.31721 -2.3542,-3.47731 0.36817,-1.72689 0.73533,-3.45472 1.1015,-5.18358 z" />
    <path
       style="fill:#9e9577;stroke:#9e9577;stroke-width:1px;stroke-linecap:butt;stroke-linejoin:miter;stroke-opacity:1;fill-opacity:1"
       d="m 511.74366,613.77581 c -1.50442,-0.30201 -3.43387,-1.17314 -4.75566,-0.25872 -1.32179,0.91442 -2.03452,3.61415 -1.43722,5.82511 0.5973,2.21095 2.56447,3.98799 5.23194,5.27996 2.66748,1.29197 6.06554,2.12709 8.16022,2.36442 2.09467,0.23733 2.88659,-0.12264 2.08034,-2.46179 -0.80626,-2.33915 -3.21081,-6.65871 -4.95306,-8.68602 -1.74224,-2.02732 -2.82213,-1.76095 -4.32656,-2.06296 z"
       id="path1033"
       inkscape:path-effect="#path-effect1035"
       inkscape:original-d="m 512.16747,614.34438 c -1.92844,-0.87013 -3.85788,-1.74126 -5.78833,-2.61339 -0.71175,2.70083 -1.42448,5.40056 -2.13822,8.09934 1.90168,1.72889 3.87428,3.49991 5.80992,5.24837 3.39919,0.83614 6.79725,1.67126 10.19437,2.50539 0.79295,-0.35898 1.58487,-0.71894 2.3758,-1.07991 -2.40365,-4.31873 -4.8082,-8.63829 -7.21381,-12.95894 -1.07893,0.26739 -2.15882,0.53376 -3.23973,0.79914 z" />
    <path
       style="fill:#9e9577;stroke:#9e9577;stroke-width:1px;stroke-linecap:butt;stroke-linejoin:miter;stroke-opacity:1;fill-opacity:1"
       d="m 498.80596,669.46946 c -0.38213,2.17461 -0.23814,6.71744 2.12026,10.64465 2.3584,3.9272 6.92993,7.23886 11.09097,8.27145 4.16103,1.0326 7.91184,-0.21287 8.90541,-2.25325 0.99356,-2.04038 -0.77026,-4.87689 -2.89289,-7.17003 -2.12263,-2.29315 -4.666,-4.0859 -7.54567,-5.86508 -2.87968,-1.77919 -6.19873,-3.60612 -8.29379,-4.60705 -2.09505,-1.00092 -3.00216,-1.19531 -3.38429,0.97931 z"
       id="path1037"
       inkscape:path-effect="#path-effect1039"
       inkscape:original-d="m 498.27981,667.10021 c 0.14499,4.54383 0.28897,9.08666 0.43196,13.62849 4.57272,3.31279 9.14425,6.62445 13.71488,9.93518 3.75197,-1.24452 7.50278,-2.48999 11.25268,-3.73649 -1.76289,-2.83563 -3.52671,-5.67214 -5.29157,-8.5097 -2.47565,-1.7557 -5.02419,-3.54111 -7.53778,-5.31317 -3.2388,-1.79889 -6.56486,-3.6131 -9.8488,-5.42115 -0.90614,-0.19339 -1.81325,-0.38777 -2.72137,-0.58316 z" />
    <path
       style="fill:#9e9577;stroke:#9e9577;stroke-width:1px;stroke-linecap:butt;stroke-linejoin:miter;stroke-opacity:1;fill-opacity:1"
       d="m 516.67822,699.62775 c 1.18463,2.18201 3.55323,6.54485 7.93429,8.56006 4.38106,2.01521 10.77401,1.68405 14.81604,0.74811 4.04204,-0.93593 5.73387,-2.47658 3.82654,-4.75487 -1.90733,-2.2783 -7.41477,-5.29479 -11.91087,-7.0373 -4.49611,-1.74251 -7.98056,-2.21047 -10.45401,-1.94783 -2.47346,0.26264 -3.93491,1.25614 -5.39661,2.24981 0,0 0,0 0,0 0,0 0,0 1.18462,2.18202 z"
       id="path1041"
       inkscape:path-effect="#path-effect1043"
       inkscape:original-d="m 515.4936,697.44573 c 2.3696,4.36384 4.73821,8.72668 7.10581,13.08852 6.39421,-0.33018 12.78716,-0.66134 19.17923,-0.99351 1.6929,-1.53971 3.38473,-3.08035 5.07559,-4.62203 -5.50666,-3.01561 -11.0141,-6.0321 -16.52265,-9.04965 -3.48358,-0.46698 -6.96803,-0.93493 -10.45354,-1.40389 -1.46051,0.99454 -2.92196,1.98804 -4.38444,2.98056 0,0 10e-4,10e-4 0,0 0,0 10e-4,10e-4 0,0 z" />
    <path
       style="fill:#9e9577;stroke:#9e9577;stroke-width:1px;stroke-linecap:butt;stroke-linejoin:miter;stroke-opacity:1;fill-opacity:1"
       d="m 544.92934,718.96116 c -4.02821,0.49303 -10.99723,1.61614 -13.31546,4.03583 -2.31823,2.41969 0.0143,6.13451 4.06785,8.42703 4.05352,2.29252 9.82733,3.16363 14.69748,2.84305 4.87015,-0.32057 8.83694,-1.83242 10.35605,-3.484 1.51911,-1.65158 0.59041,-3.4442 -1.41801,-5.47464 -2.00841,-2.03044 -5.0969,-4.29821 -7.18475,-5.50086 -2.08785,-1.20264 -3.17494,-1.33943 -7.20316,-0.84641 z"
       id="path1045"
       inkscape:path-effect="#path-effect1047"
       inkscape:original-d="m 547.86934,718.33121 c -6.96803,1.12411 -13.93705,2.24722 -20.90708,3.36933 2.33365,3.71597 4.66621,7.43079 6.99782,11.14469 5.77505,0.87214 11.54886,1.74325 17.32178,2.61338 3.96796,-1.51091 7.93475,-3.02275 11.90063,-4.53563 -0.92774,-1.79169 -1.85645,-3.5843 -2.78617,-5.37796 -3.08761,-2.26686 -6.1761,-4.53462 -9.26564,-6.80344 -1.08614,-0.13579 -2.17323,-0.27258 -3.26134,-0.41037 z" />
    <path
       style="fill:#9e9577;stroke:#9e9577;stroke-width:1px;stroke-linecap:butt;stroke-linejoin:miter;stroke-opacity:1;fill-opacity:1"
       d="m 572.60705,735.43345 c -0.61861,-0.0467 -1.85691,-0.14035 -5.007,0.88185 -3.15008,1.02219 -8.21116,3.16037 -10.30627,5.91848 -2.09512,2.7581 -1.22401,6.13455 1.10908,8.34796 2.33309,2.2134 6.1271,3.26449 9.58976,3.28222 3.46266,0.0177 6.59434,-0.99737 9.05625,-2.43357 2.4619,-1.43619 4.25452,-3.2936 5.12206,-5.66893 0.86755,-2.37534 0.80996,-5.26944 -0.83457,-7.06968 -1.64453,-1.80024 -4.877,-2.50577 -8.11069,-3.21157 0,0 0,0 0,0 0,0 0,0 0,0 0,0 0,0 0,0 0,0 0,0 -0.61862,-0.0468 z"
       id="path1065"
       inkscape:path-effect="#path-effect1067"
       inkscape:original-d="m 573.22567,735.48021 c -1.2373,-0.0926 -2.4756,-0.18619 -3.7149,-0.28078 -5.06029,2.13927 -10.12137,4.27745 -15.18356,6.41468 0.87215,3.37759 1.74326,6.75404 2.61339,10.12957 3.79517,1.05213 7.58918,2.10322 11.38227,3.15334 3.1328,-1.01414 6.26448,-2.02924 9.39523,-3.04535 1.79369,-1.85649 3.5863,-3.7139 5.37796,-5.57235 -0.0566,-2.89322 -0.11419,-5.78732 -0.17279,-8.68248 -3.2316,-0.70456 -6.46407,-1.41009 -9.6976,-2.11663 0,0 10e-4,10e-4 0,0 0,0 10e-4,10e-4 0,0 0,0 10e-4,10e-4 0,0 0.29618,-0.84855 0.59135,-1.69806 0,0 z" />
    <path
       style="fill:#9e9577;stroke:#9e9577;stroke-width:1px;stroke-linecap:butt;stroke-linejoin:miter;stroke-opacity:1;fill-opacity:1"
       d="m 546.2573,399.37358 c -1.28196,0.30587 -2.29708,1.06181 -3.79835,4.02114 -1.50128,2.95934 -3.48828,8.12122 -3.06284,11.87951 0.42544,3.7583 3.26194,6.11246 5.66234,5.70895 2.4004,-0.40352 4.3658,-3.564 5.48176,-6.67745 1.11595,-3.11346 1.38232,-6.18034 1.25985,-8.65184 -0.12247,-2.4715 -0.64746,-4.39647 -1.68021,-5.41933 -1.03276,-1.02286 -2.5806,-1.16684 -3.86255,-0.86098 z"
       id="path1073"
       inkscape:path-effect="#path-effect1075"
       inkscape:original-d="m 545.9903,398.92363 c -1.01412,0.75694 -2.02924,1.51288 -3.04535,2.26781 -1.98608,5.16308 -3.97308,10.32496 -5.96111,15.48593 2.83762,2.35526 5.67413,4.70942 8.5097,7.06263 1.96648,-3.15961 3.93188,-6.32009 5.89632,-9.48163 0.26738,-3.06601 0.53375,-6.13289 0.79913,-9.20084 -0.47417,-1.88529 -1.03572,-3.80029 -1.55507,-5.70194 -1.54691,-0.14299 -3.09475,-0.28697 -4.64362,-0.43196 z" />
    <path
       style="fill:#9e9577;stroke:#9e9577;stroke-width:1px;stroke-linecap:butt;stroke-linejoin:miter;stroke-opacity:1;fill-opacity:1"
       d="m 534.77306,390.84542 c -2.01475,-2.31794 -4.08098,-1.50441 -6.05041,1.09857 -1.96942,2.60297 -3.84123,6.99452 -3.43736,9.4638 0.40388,2.46928 3.08201,3.01642 5.59401,1.92201 2.51201,-1.09442 4.85897,-3.83014 5.71627,-6.07559 0.85729,-2.24545 0.19225,-4.09084 -1.82251,-6.40879 z"
       id="path1077"
       inkscape:path-effect="#path-effect1079"
       inkscape:original-d="m 534.82401,387.71415 c -2.06523,0.81453 -4.13146,1.62806 -6.19869,2.4406 -1.87088,4.39273 -3.74269,8.78428 -5.61554,13.17492 2.67923,0.54816 5.35736,1.09531 8.03454,1.64146 2.34806,-2.73483 4.69502,-5.47055 7.04103,-8.20732 0.36817,-2.11567 0.73534,-4.33305 -3.26134,-9.04966 z" />
    <path
       style="fill:#9e9577;stroke:#9e9577;stroke-width:1px;stroke-linecap:butt;stroke-linejoin:miter;stroke-opacity:1;fill-opacity:1"
       d="m 621.12806,283.39552 c 1.30675,0.90701 3.06341,1.96532 4.7138,3.26678 1.65039,1.30145 3.24503,2.89609 5.37557,2.28362 2.13054,-0.61246 4.82307,-3.40578 5.69096,-5.57584 0.86789,-2.17006 -0.0896,-3.71791 -1.60127,-4.90256 -1.51165,-1.18466 -3.57784,-2.00538 -5.93946,-2.21086 -2.36163,-0.20548 -5.01815,0.20487 -6.94446,1.09412 -1.9263,0.88924 -3.12138,2.2571 -3.28999,3.31945 -0.16862,1.06235 0.6881,1.81827 1.99485,2.72529 z"
       id="path1081"
       inkscape:path-effect="#path-effect1083"
       inkscape:original-d="m 620.67698,283.24351 c 1.75765,1.05931 3.51431,2.11763 5.26997,3.17494 1.5561,1.5345 3.13994,3.13994 4.70841,4.70841 2.69363,-2.79242 5.38616,-5.58574 8.07774,-8.38011 -0.95654,-1.5469 -1.91405,-3.09475 -2.87257,-4.64362 -2.06527,-0.81975 -4.13146,-1.64047 -6.19869,-2.4622 -2.65563,0.41138 -5.31216,0.82173 -7.96975,1.2311 -1.19412,1.36892 -2.3892,2.73678 -3.5853,4.10366 0.85774,0.75696 1.71446,1.51288 2.57019,2.26782 z" />
    <path
       style="fill:#9e9577;stroke:#9e9577;stroke-width:1px;stroke-linecap:butt;stroke-linejoin:miter;stroke-opacity:1;fill-opacity:1"
       d="m 636.35073,269.5223 c 2.00199,1.72764 5.89687,3.85867 9.07869,4.41258 3.18182,0.55392 5.65117,-0.46838 6.59145,-2.25532 0.94029,-1.78693 0.33378,-4.41757 -0.98337,-6.74308 -1.31715,-2.32551 -3.35454,-4.38451 -5.0142,-5.21663 -1.65966,-0.83213 -2.94113,-0.43617 -4.83617,0.65559 -1.89504,1.09176 -4.49847,2.94716 -5.72242,4.52085 -1.22396,1.57369 -1.11597,2.89836 0.88602,4.62601 z"
       id="path1085"
       inkscape:path-effect="#path-effect1087"
       inkscape:original-d="m 634.45665,269.11827 c 3.89588,2.13202 7.79076,4.26305 11.68464,6.39307 2.47045,-1.02133 4.9398,-2.04363 7.40819,-3.06695 -0.57496,-2.55484 -1.1941,-5.18257 -1.79265,-7.77536 -2.03647,-2.05807 -4.07387,-4.11706 -6.1123,-6.17709 -1.28052,0.39697 -2.56199,0.79293 -3.84448,1.1879 -2.51885,1.77209 -5.11058,3.6439 -7.66738,5.46435 0.109,1.32572 0.21699,2.65039 0.32398,3.97408 z" />
    <path
       style="fill:#9e9577;stroke:#9e9577;stroke-width:1px;stroke-linecap:butt;stroke-linejoin:miter;stroke-opacity:1;fill-opacity:1"
       d="m 649.56159,242.04174 c -1.46904,-0.45417 -2.82253,0.46016 -4.24355,2.80285 -1.42102,2.3427 -2.92785,6.16048 -2.08855,7.86643 0.8393,1.70594 4.01418,1.32438 6.23107,-0.11888 2.2169,-1.44325 3.47677,-3.9486 3.31533,-6.11171 -0.16144,-2.1631 -1.74527,-3.98452 -3.2143,-4.43869 z"
       id="path1093"
       inkscape:path-effect="#path-effect1095"
       inkscape:original-d="m 649.44582,240.6734 c -1.35249,0.91532 -2.70598,1.82965 -4.06047,2.74297 -1.5181,3.75917 -2.99395,7.58918 -4.49243,11.38227 3.176,-0.38058 6.35088,-0.76214 9.52482,-1.14471 1.26092,-2.50444 2.52079,-5.00979 3.77969,-7.51618 -1.5829,-1.82049 -3.16674,-3.6419 -4.75161,-5.46435 z" />
    <path
       style="fill:#9e9577;stroke:#9e9577;stroke-width:1px;stroke-linecap:butt;stroke-linejoin:miter;stroke-opacity:1;fill-opacity:1"
       d="m 618.89188,293.34888 c -0.85626,-2.0265 -2.74251,-4.61829 -4.98587,-6.03517 -2.24336,-1.41688 -4.92699,-1.6655 -6.6627,-0.46291 -1.7357,1.2026 -2.56362,3.85193 -1.83937,5.91824 0.72424,2.06631 2.9992,3.54935 5.60572,4.37418 2.60653,0.82483 5.48551,0.98873 7.02561,0.34118 1.5401,-0.64756 1.71288,-2.10902 0.85661,-4.13552 z"
       id="path1105"
       inkscape:path-effect="#path-effect1107"
       inkscape:original-d="m 619.92104,293.91303 c -1.88525,-2.59078 -3.77149,-5.18257 -5.65874,-7.77536 -2.59804,-0.25818 -5.28336,-0.48856 -7.92655,-0.73434 -0.82695,2.65044 -1.65486,5.29977 -2.48379,7.94815 2.27606,1.48411 4.55102,2.96716 6.82504,4.44924 2.93841,0.18098 5.81812,0.33217 8.72568,0.49676 0.17379,-1.46051 0.34657,-2.92197 0.51836,-4.38445 z" />
    <ellipse
       style="fill:#262a3f;fill-opacity:1;stroke:#262a3f;stroke-width:6.78073;stroke-miterlimit:4;stroke-dasharray:none;stroke-opacity:1"
       id="path1117"
       cx="257.27594"
       cy="492.83276"
       rx="11.523905"
       ry="11.34032" />
    <ellipse
       style="fill:#262a3f;fill-opacity:1;stroke:#262a3f;stroke-width:6.78073;stroke-miterlimit:4;stroke-dasharray:none;stroke-opacity:1"
       id="path1117-6"
       cx="908.08466"
       cy="495.01849"
       rx="11.523905"
       ry="11.34032" />
  </g>
  <g
     inkscape:groupmode="layer"
     id="layer5"
     inkscape:label="Image 4">
    <g
       aria-label="POSEIDON'S BLUE"
       transform="matrix(1.8333014,0,0,2.0942588,-364.47611,-248.63647)"
       id="text1140"
       style="font-size:40px;line-height:1.25;font-family:sans-serif;word-spacing:0px;white-space:pre;shape-inside:url(#rect1142);fill:#262a3f;fill-opacity:1;stroke:#262a3f;stroke-opacity:1"
       inkscape:path-effect="#path-effect1181">
      <path
         d="m 355.69856,313.89934 c -1.97475,6.51765 -3.58324,13.16659 -4.83389,19.88694 l -0.62936,-0.11619 c 0.0797,-0.42837 0.16083,-0.85645 0.24343,-1.28423 0.0333,-0.59464 0.0799,-1.17317 0.13922,-1.7352 0.0332,-0.56723 -0.0738,-1.03458 -0.32358,-1.40387 -0.26979,-0.40196 -0.81314,-0.73433 -1.63018,-0.9951 5e-5,1e-5 -1.78265,-0.4666 -1.7826,-0.46658 l -18.55214,-3.94646 c -4e-5,-10e-6 -1.82022,-0.28933 -1.82027,-0.28933 -0.85505,-0.0836 -1.49169,0.0273 -1.91009,0.33479 -0.41799,0.30715 -0.73791,0.80145 -0.95545,1.48186 -0.21119,0.64865 -0.37064,1.25913 -0.47933,1.82969 -0.12947,0.53643 -0.24599,1.01829 -0.35424,1.46041 l -0.62938,-0.11605 c 1.34826,-7.43723 3.0968,-14.82072 5.25329,-22.09803 1.51126,-5.06722 3.16684,-8.25769 4.62954,-9.53659 1.48944,-1.32328 2.88836,-2.08728 4.1707,-2.31886 1.25885,-0.24122 2.48554,-0.12499 3.68134,0.33125 1.121,0.4277 2.11417,1.04068 2.98491,1.82866 0.87081,0.78804 1.49004,1.71893 1.86485,2.78958 0.35,1.06219 0.47347,2.25578 0.3794,3.58827 -0.0942,1.33487 -0.45979,2.95782 -1.0743,4.8999 -0.5832,1.84311 -1.0239,3.3777 -1.3279,4.52324 -0.33194,1.14707 -0.58897,2.12308 -0.77496,2.90667 l 7.41425,2.0206 c -5e-5,-1e-5 1.79883,0.40177 1.79878,0.40176 0.84594,0.14252 1.47764,0.10998 1.89415,-0.096 0.39874,-0.24051 0.71927,-0.64648 0.96536,-1.21829 0.24611,-0.57188 0.46544,-1.13574 0.6579,-1.6926 0.16655,-0.56339 0.29775,-0.95045 0.38783,-1.15616 z m -19.70467,-7.93966 c -1.45087,-0.4554 -2.93426,-0.67521 -4.45238,-0.64407 -1.51812,0.0311 -2.5285,0.5004 -3.0197,1.39978 -0.50752,0.86081 -0.88963,1.74538 -1.14554,2.64865 -0.27132,0.86027 -0.46681,1.52159 -0.58475,1.95415 l 14.44235,3.93597 c 0.13224,-0.58672 0.27124,-1.18769 0.41733,-1.80225 0.14649,-0.61632 0.28366,-1.43313 0.42159,-2.46137 0.1207,-1.06306 -0.42318,-2.01556 -1.6386,-2.87055 -1.23097,-0.89133 -2.71025,-1.61728 -4.4403,-2.16031 z"
         style="font-style:normal;font-variant:normal;font-weight:normal;font-stretch:normal;font-family:Elephant;-inkscape-font-specification:Elephant;fill:#262a3f;fill-opacity:1;stroke:#262a3f;stroke-opacity:1"
         id="path1152"
         inkscape:original-d="m 322.5532,300.85649 h -19.52 v -0.64 h 1.24 q 0.84,-0.12 1.64,-0.2 0.8,-0.12 1.24,-0.6 0.48,-0.52 0.6,-1.8 l 0.08,-1.84 v -18.96 l -0.08,-1.84 q -0.12,-1.28 -0.6,-1.8 -0.48,-0.52 -1.36,-0.64 -0.84,-0.12 -1.56,-0.12 -0.68,-0.04 -1.24,-0.08 v -0.64 l 18.68,-0.04 q 6.52,0 8.64,1.44 2.16,1.44 3,3.12 0.84,1.64 0.84,3.56 0,1.8 -0.56,3.44 -0.56,1.64 -1.72,2.72 -1.16,1.04 -2.88,1.56 -1.72,0.52 -4.44,0.52 -2.6,0 -4.2,0.04 -1.6,0 -2.68,0.04 v 7.68 l 0.08,1.84 q 0.12,1.28 0.56,1.8 0.48,0.48 1.36,0.6 0.88,0.12 1.72,0.16 0.84,0 1.16,0.04 z m 1.6,-21.16 q 0,-2.28 -0.6,-4.44 -0.6,-2.16 -1.84,-2.48 -1.2,-0.36 -2.36,-0.36 -1.12,-0.04 -1.68,-0.04 v 14.96 q 0.8,-0.04 1.64,-0.08 0.84,-0.04 2.2,-0.28 1.4,-0.28 2,-2.4 0.64,-2.16 0.64,-4.88 z" />
      <path
         d="m 363.96039,262.39075 c 3.54459,2.38107 5.48048,5.86836 6.1125,10.27728 0.0105,0.0734 0.0207,0.14679 0.0305,0.22004 0.57475,4.33936 -0.16163,8.33799 -2.22976,12.29384 -2.19214,4.19306 -5.1058,7.17767 -9.00847,9.08251 -3.89829,1.85976 -7.86471,2.13855 -11.90486,0.53056 -4.15558,-1.65393 -6.88627,-4.67049 -7.93312,-9.25042 -1.04274,-4.56196 -0.33191,-9.42231 2.2077,-14.28369 2.4866,-4.7599 6.02327,-8.11629 10.33492,-9.92184 0.0921,-0.0384 0.18447,-0.0762 0.27724,-0.11325 4.43599,-1.7947 8.46787,-1.28389 12.11339,1.16497 z m -16.72198,6.41338 c -2.42182,-0.2488 -4.2237,0.68981 -5.33052,2.80847 -0.55977,1.07151 -0.74949,2.15003 -0.57097,3.2203 0.17866,1.07108 0.71601,2.09142 1.6074,3.06016 0.88217,0.92905 2.1395,1.90505 3.77468,2.93418 1.62405,0.98909 3.33847,1.91122 5.14102,2.77518 2.47157,1.18463 4.54892,2.04707 6.20625,2.58857 1.66113,0.54276 3.37138,0.89177 5.12682,1.06494 1.75813,0.17344 3.07378,-0.63981 4.00745,-2.42575 0.47412,-0.9069 0.60999,-1.83534 0.40752,-2.80066 -0.20227,-0.96436 -0.72815,-1.91188 -1.58157,-2.84206 -0.86201,-0.96689 -2.07404,-1.99702 -3.63346,-3.08013 -1.56922,-1.12224 -3.22058,-2.18229 -4.95804,-3.16986 -2.06414,-1.17326 -3.88907,-2.10613 -5.49105,-2.79738 -1.62367,-0.70374 -3.18972,-1.15267 -4.70553,-1.33596 z"
         style="font-style:normal;font-variant:normal;font-weight:normal;font-stretch:normal;font-family:Elephant;-inkscape-font-specification:Elephant;fill:#262a3f;fill-opacity:1;stroke:#262a3f;stroke-opacity:1"
         id="path1154"
         inkscape:original-d="m 368.87319,286.29649 q 0,6.4 -4.84,10.72 -4.84,4.32 -11.44,4.32 -6.88,0 -11.52,-4.24 -4.6,-4.28 -4.6,-10.8 0,-6.72 4.72,-10.88 4.72,-4.16 11.4,-4.16 6.68,0 11.48,4.24 4.8,4.2 4.8,10.8 z m -12.16,-10.92 q -1.2,-3.36 -4.12,-3.36 -1.48,0 -2.56,0.96 -1.08,0.96 -1.68,2.8 -0.56,1.8 -0.84,4.68 -0.24,2.84 -0.24,5.84 0,4.12 0.32,6.72 0.32,2.6 1.2,5.08 0.88,2.48 3.8,2.48 1.48,0 2.56,-0.96 1.08,-0.96 1.64,-2.76 0.6,-1.84 0.84,-4.68 0.28,-2.88 0.28,-5.88 0,-3.56 -0.24,-6.16 -0.24,-2.64 -0.96,-4.76 z" />
      <path
         d="m 388.86129,241.53619 c 1.86886,1.86807 2.53686,4.25771 2.14904,7.12811 -0.38877,2.83905 -1.43972,5.22605 -3.20457,7.26141 -1.54947,1.78697 -3.58272,3.11565 -6.16448,4.06054 -2.60198,0.92811 -4.01249,1.60228 -4.23256,1.89642 -0.5592,0.74742 -0.63132,1.41309 -0.22609,1.98725 0.40576,0.57493 1.18737,1.40319 2.34852,2.48223 -0.137,0.18904 -0.27355,0.37838 -0.40966,0.56803 l -11.632,-8.34889 c 0.14896,-0.20754 0.2984,-0.41474 0.44831,-0.62159 0.47298,0.15443 1.56596,0.5085 2.75675,0.90294 1.29864,0.40045 2.99363,0.66908 5.0988,0.85276 2.09647,0.14428 4.15386,-0.125 6.18638,-0.78712 2.05217,-0.68464 3.81643,-1.90058 5.35752,-3.67308 0.88836,-1.02176 1.36648,-2.07337 1.43303,-3.17861 0.0665,-1.10404 -0.2428,-1.9851 -0.94856,-2.63644 -0.84276,-0.77779 -1.73009,-1.15324 -2.66941,-1.11347 -0.93552,0.0396 -2.2217,0.49872 -3.82968,1.41096 -1.62763,0.8945 -3.35076,1.87671 -5.15277,2.95259 -1.80624,1.07842 -3.86524,2.12658 -6.19898,3.18837 -2.31016,1.07678 -4.8116,0.69108 -7.51606,-1.25674 -2.11707,-1.52476 -3.20179,-3.83086 -3.10959,-6.97215 0.092,-3.13526 1.2337,-6.06836 3.40309,-8.67256 1.19976,-1.44024 2.66579,-2.59276 4.37452,-3.43742 1.70522,-0.76029 3.41383,-1.48864 5.12478,-2.18526 0.63886,-0.68271 0.83053,-1.34586 0.56917,-1.99943 -0.28029,-0.67114 -0.76517,-1.34128 -1.45753,-2.00577 0.21621,-0.2253 0.43299,-0.45006 0.65033,-0.67426 l 7.60998,7.37833 c -0.19407,0.20018 -0.38767,0.40082 -0.58078,0.60193 -0.43016,-0.20034 -1.22189,-0.50455 -2.35623,-0.89162 -1.11452,-0.41037 -2.66262,-0.56726 -4.6377,-0.42609 -1.95565,0.11774 -3.6357,0.53207 -5.02174,1.22311 -1.38452,0.64892 -2.73049,1.74258 -4.00483,3.28071 -0.85667,1.03401 -1.39235,2.20527 -1.60071,3.49609 -0.20851,1.29173 0.0786,2.2298 0.83496,2.81929 0.79934,0.623 1.72793,0.81756 2.78199,0.60143 1.05353,-0.25767 2.06994,-0.67345 3.05523,-1.24661 1.06457,-0.63277 2.29514,-1.39656 4.05815,-2.47043 1.70389,-1.03785 3.53975,-2.01775 5.50198,-2.92589 1.96456,-0.94933 3.96568,-1.31808 5.9743,-1.12259 1.98977,0.17688 3.72833,1.04539 5.2371,2.55352 z"
         style="font-style:normal;font-variant:normal;font-weight:normal;font-stretch:normal;font-family:Elephant;-inkscape-font-specification:Elephant;fill:#262a3f;fill-opacity:1;stroke:#262a3f;stroke-opacity:1"
         id="path1156"
         inkscape:original-d="m 397.63312,292.29649 q 0,3.96 -3.36,6.52 -3.32,2.52 -7.24,2.52 -3.44,0 -6.8,-2.16 -3.36,-2.2 -3.88,-2.2 -1.32,0 -1.64,1 -0.32,1 -0.6,3.36 h -0.68 v -14.32 h 0.68 q 0.24,0.84 0.8,2.76 0.6,1.92 2.16,4.6 1.6,2.64 4.16,4.4 2.6,1.76 6,1.76 1.96,0 3.2,-1.04 1.24,-1.04 1.24,-2.48 0,-1.72 -0.92,-2.72 -0.92,-1 -3.32,-1.92 -2.4,-0.96 -5.08,-2.04 -2.68,-1.08 -5.68,-2.92 -3,-1.8 -3,-6.8 0,-3.92 3.16,-6.64 3.16,-2.72 7.28,-2.72 2.28,0 4.44,1.08 l 4.16,2.32 q 1.16,0 1.52,-0.96 0.36,-1 0.36,-2.44 h 0.76 v 10.6 h -0.72 q -0.2,-0.68 -0.84,-2.32 -0.6,-1.64 -2.4,-3.68 -1.76,-2.04 -3.52,-2.92 -1.72,-0.92 -4.16,-0.92 -1.64,0 -3.04,0.96 -1.4,0.96 -1.4,2.4 0,1.52 1.04,2.56 1.08,1 2.44,1.6 1.4,0.6 3.84,1.52 2.44,0.92 5.04,2.16 2.64,1.2 4.32,3.56 1.68,2.32 1.68,5.52 z" />
      <path
         d="m 407.69406,235.12591 c 0.89571,-0.74433 1.83011,-1.48554 2.80317,-2.2211 0.19358,-0.1531 0.38815,-0.30962 0.58377,-0.46956 0.77226,-0.63245 1.56052,-1.31784 2.36949,-2.05647 1.00163,-0.95052 1.60406,-2.9863 1.9438,-6.17002 0.32478,-3.20504 0.26067,-6.18047 -0.27713,-8.93351 0.20197,-0.12764 0.4042,-0.25486 0.60669,-0.38167 l 6.74925,10.77707 c -3.73151,2.33641 -7.36146,4.82279 -10.8742,7.45664 -5.16554,3.86545 -10.09066,8.06031 -14.73545,12.54553 l -0.44458,-0.46036 c 0.25934,-0.25043 0.54944,-0.54739 0.87282,-0.89149 0.30448,-0.36285 0.65188,-0.76376 1.04159,-1.19945 0.39211,-0.47441 0.59409,-0.93104 0.60413,-1.37406 0.0126,-0.48086 -0.23575,-1.06646 -0.74647,-1.75494 -0.39131,-0.47312 -0.78237,-0.94645 -1.17319,-1.42 l -12.734,-14.04707 c -0.43555,-0.43299 -0.87133,-0.86576 -1.30736,-1.2983 -0.64516,-0.56711 -1.22819,-0.8477 -1.75062,-0.83999 -0.52185,0.008 -1.07515,0.22604 -1.65514,0.65708 -0.556,0.40871 -1.04709,0.81684 -1.47298,1.22203 0.83394,-0.72046 -1.98556,1.7144 -1.15161,0.99394 l -0.44496,-0.46 c 5.55034,-5.3691 11.43927,-10.38874 17.62612,-15.01913 3.91157,-2.92264 7.93055,-5.68794 12.04406,-8.29383 l 6.33374,9.99904 c -0.20716,0.13122 -0.41405,0.26287 -0.62067,0.39495 -2.9262,-1.67422 -5.9319,-2.70112 -9.005,-3.05355 -3.08575,-0.37414 -5.36181,-0.087 -6.75431,0.76857 -0.51777,0.31692 -1.00188,0.62225 -1.45176,0.91448 -0.73701,0.4796 -1.3846,0.92569 -1.94086,1.33247 -0.88377,0.64628 -1.495,1.11047 -1.76456,1.32294 -0.11546,0.091 -0.23081,0.18215 -0.34605,0.27343 2.68989,3.44839 5.38163,6.89532 8.07522,10.3408 0.48229,-0.41649 0.96704,-0.83035 1.45424,-1.24155 0.82139,-0.76499 1.37279,-1.5931 1.65518,-2.49654 0.16188,-0.51794 0.23516,-1.06055 0.21931,-1.62863 -0.0346,-1.59668 -0.55326,-3.11436 -1.58682,-4.53815 0.24233,-0.17581 0.48509,-0.35099 0.72826,-0.52557 l 8.49293,11.82356 c -0.22337,0.16054 -0.44634,0.32164 -0.66889,0.48331 -1.04968,-1.44601 -2.3182,-2.45262 -3.83013,-2.99526 -0.54188,-0.20406 -1.08524,-0.30898 -1.62949,-0.31403 -0.94848,-0.009 -1.89973,0.28604 -2.84139,0.88695 -0.51724,0.36701 -1.03253,0.73704 -1.54583,1.11005 2.84989,3.5938 5.69979,7.18759 8.54968,10.78139 z"
         style="font-style:normal;font-variant:normal;font-weight:normal;font-stretch:normal;font-family:Elephant;-inkscape-font-specification:Elephant;fill:#262a3f;fill-opacity:1;stroke:#262a3f;stroke-opacity:1"
         id="path1158"
         inkscape:original-d="m 414.83308,300.05649 q 1.68,-0.04 3.44,-0.04 1.76,-0.04 3.72,-0.28 1.96,-0.28 4.84,-3.96 2.88,-3.72 4.24,-7.64 h 0.64 v 12.72 h -31.44 v -0.64 q 0.52,0 1.2,-0.04 0.68,-0.08 1.52,-0.16 0.88,-0.12 1.32,-0.6 0.48,-0.52 0.6,-1.8 l 0.08,-1.84 v -18.96 l -0.08,-1.84 q -0.12,-1.28 -0.6,-1.8 -0.48,-0.52 -1.36,-0.64 -0.84,-0.12 -1.56,-0.12 -0.68,-0.04 -1.24,-0.08 v -0.64 h 30.76 v 11.84 h -0.64 q -2.04,-4.48 -4.96,-7.52 -2.92,-3.08 -4.92,-3.28 -1.96,-0.2 -3.32,-0.24 -1.36,-0.04 -1.8,-0.04 h -0.36 l -0.08,13.12 1.68,-0.08 q 2.32,-0.24 3.48,-2.16 1.2,-1.96 1.2,-4.6 h 0.76 v 14.56 h -0.76 q 0,-2.68 -1.2,-4.68 -1.16,-2 -3.48,-2.24 l -1.68,-0.08 z" />
      <path
         d="m 442.93197,214.78729 c -5.98274,2.67095 -11.80286,5.68059 -17.40946,9.02075 l -0.32761,-0.54959 c 0.1634,-0.0974 0.39844,-0.237 0.6822,-0.4042 0.28432,-0.19961 0.70491,-0.50606 1.32689,-0.95808 0.62278,-0.48173 0.98484,-0.94595 1.083,-1.39894 0.12245,-0.4663 0.0203,-1.08149 -0.30844,-1.84429 -0.27423,-0.54922 -0.54818,-1.09858 -0.82186,-1.64809 l -9.25188,-16.59155 c -0.32642,-0.52011 -0.65309,-1.04005 -0.98004,-1.55984 -0.50005,-0.69816 -0.98322,-1.09968 -1.45096,-1.20372 -0.45222,-0.14308 -1.14402,-0.0136 -2.07023,0.39767 -0.78694,0.39248 -1.57164,0.79057 -2.35402,1.19428 l -0.32718,-0.54985 c 6.56612,-3.90896 13.35376,-7.42289 20.31298,-10.53375 l 0.2611,0.58446 c -0.7841,0.39432 -1.56543,0.79376 -2.34393,1.19831 -0.8794,0.49535 -1.40988,0.96945 -1.59378,1.41087 -0.16649,0.40434 -0.0967,1.0359 0.20846,1.8954 0.23618,0.56702 0.47264,1.13392 0.70937,1.70069 l 8.28996,17.27586 c 0.29118,0.54065 0.58209,1.08143 0.87273,1.62235 0.45685,0.75673 0.89382,1.21338 1.30923,1.37012 0.43018,0.12092 1.05795,0.0444 1.88907,-0.22184 0.6762,-0.26818 1.35398,-0.532 2.03329,-0.79147 z"
         style="font-style:normal;font-variant:normal;font-weight:normal;font-stretch:normal;font-family:Elephant;-inkscape-font-specification:Elephant;fill:#262a3f;fill-opacity:1;stroke:#262a3f;stroke-opacity:1"
         id="path1160"
         inkscape:original-d="m 453.99301,300.85649 h -18.84 v -0.64 q 0.28,0 0.76,0 0.48,-0.04 1.56,-0.16 1.12,-0.16 1.56,-0.68 0.48,-0.52 0.6,-1.76 l 0.08,-1.84 v -19 l -0.08,-1.84 q -0.12,-1.28 -0.56,-1.76 -0.4,-0.52 -1.64,-0.68 l -2.16,-0.16 v -0.64 h 18.72 v 0.64 l -2.16,0.12 q -1.24,0.12 -1.68,0.6 -0.4,0.44 -0.52,1.8 l -0.08,1.84 v 19.16 l 0.08,1.84 q 0.12,1.32 0.56,1.8 0.48,0.44 1.72,0.6 l 2.08,0.12 z" />
      <path
         d="m 445.26451,213.76661 -0.25238,-0.5883 c 0.33403,-0.14324 0.71385,-0.31939 1.14176,-0.52817 0.41694,-0.23303 0.88776,-0.48676 1.41089,-0.75858 0.53924,-0.30728 0.89294,-0.6649 1.06081,-1.07697 0.18381,-0.44674 0.15911,-1.083 -0.076,-1.90769 -0.19954,-0.58083 -0.39879,-1.16177 -0.59777,-1.74281 l -6.97515,-17.63575 c -0.25514,-0.55883 -0.51055,-1.11754 -0.76624,-1.67614 -0.40371,-0.75836 -0.84925,-1.22704 -1.33849,-1.405 -0.48874,-0.17777 -1.07996,-0.17005 -1.77036,0.0265 -0.66028,0.18419 -1.26004,0.39056 -1.79824,0.61719 -0.52172,0.19059 -0.98892,0.36119 -1.41999,0.51734 l -0.25282,-0.58811 c 5.56931,-2.42417 11.24591,-4.59263 17.00458,-6.50097 0.50819,-0.16593 1.01452,-0.32293 1.51883,-0.47108 3.08367,-0.9067 6.08981,-1.4832 8.98441,-1.74421 3.40149,-0.31236 6.75773,0.40958 9.9666,2.15116 3.23925,1.73441 5.23006,4.80132 6.09787,9.08737 0.83,4.09928 0.29022,7.36723 -1.478,9.79805 -1.75388,2.4094 -3.72639,4.15653 -5.98398,5.27213 -2.24298,1.08548 -4.89196,2.07639 -7.98445,3.04765 -0.24498,0.0769 -0.48978,0.15441 -0.7344,0.23242 -5.3453,1.70637 -10.60839,3.66606 -15.75748,5.87399 z m 10.38029,-33.51913 c -0.47825,-0.0229 -1.19177,0.0811 -2.1335,0.31921 -0.39091,0.0981 -0.75766,0.19491 -1.0998,0.29006 -0.45578,0.12664 -0.86873,0.25051 -1.23804,0.37051 -0.18485,0.0601 -0.36961,0.1204 -0.5543,0.18101 l 8.6306,26.26 c 0.18613,-0.0613 0.36323,-0.10522 0.53114,-0.13189 0.15768,-0.0514 0.36131,-0.11749 0.5991,-0.19405 0.14297,-0.046 0.28373,-0.0925 0.42228,-0.13956 0.84352,-0.28594 1.60515,-0.59033 2.28662,-0.91695 0.82006,-0.38833 1.51934,-0.94196 2.10352,-1.66553 0.60357,-0.75661 0.92882,-2.35809 1.00335,-4.81184 0.0953,-2.48691 -0.15663,-4.93081 -0.79952,-7.32583 -0.89931,-3.35031 -2.16545,-6.20844 -3.86323,-8.56464 -1.67228,-2.38714 -3.64731,-3.62072 -5.88822,-3.6705 z"
         style="font-style:normal;font-variant:normal;font-weight:normal;font-stretch:normal;font-family:Elephant;-inkscape-font-specification:Elephant;fill:#262a3f;fill-opacity:1;stroke:#262a3f;stroke-opacity:1"
         id="path1162"
         inkscape:original-d="m 456.43298,300.85649 v -0.64 q 0.52,0 1.2,-0.04 0.68,-0.08 1.52,-0.16 0.88,-0.12 1.32,-0.6 0.48,-0.52 0.6,-1.8 l 0.08,-1.84 v -18.96 l -0.08,-1.84 q -0.12,-1.28 -0.6,-1.8 -0.48,-0.52 -1.36,-0.64 -0.84,-0.12 -1.56,-0.12 -0.68,-0.04 -1.24,-0.08 v -0.64 l 14.92,-0.08 q 4.68,0 8.8,0.88 4.16,0.88 7.64,4.48 3.52,3.6 3.52,10.16 0,6.28 -3.16,9.28 -3.12,2.96 -6.64,3.72 -3.48,0.72 -8.12,0.72 z m 18.8,-28 q -0.56,-0.24 -1.76,-0.32 -1.16,-0.08 -2,-0.08 h -0.48 v 27.64 q 0.28,0 0.52,0.04 0.24,0 0.6,0 1.52,0 2.76,-0.2 1.28,-0.2 2.36,-1 1.12,-0.84 2.12,-4.36 1.04,-3.56 1.04,-7.28 0,-5.2 -1.28,-9.28 -1.24,-4.12 -3.88,-5.16 z" />
      <path
         d="m 517.6668,184.75682 c -0.0103,2.25055 -0.52733,4.30637 -1.50665,6.17284 -0.87772,1.67306 -2.12758,3.19723 -3.73018,4.59445 -3.39602,2.96079 -7.27895,4.57602 -11.86693,4.97589 -4.782,0.41678 -8.90991,-0.4593 -12.61658,-2.75419 -3.67818,-2.32289 -6.00265,-5.5408 -6.77421,-9.8183 -0.79436,-4.40398 0.32241,-8.31342 3.62845,-11.63313 3.29399,-3.30762 7.74294,-5.29236 13.14917,-5.76393 5.40629,-0.47157 10.16339,0.73698 14.04118,3.47692 1.82423,1.27662 3.19609,2.76164 4.1316,4.42887 1.05514,1.88019 1.55478,3.98903 1.54415,6.32058 z m -14.4547,-10.49181 c -1.09495,-2.17321 -2.83944,-3.18292 -5.19621,-2.97735 -1.19236,0.10401 -2.19388,0.52259 -2.99389,1.24735 -0.80056,0.72526 -1.36921,1.7259 -1.70724,2.99815 -0.3096,1.24312 -0.46,2.82888 -0.45445,4.76235 0.0333,1.90272 0.1706,3.84618 0.40419,5.83299 0.32034,2.72471 0.70219,4.94223 1.1325,6.63401 0.43116,1.69511 1.05438,3.32816 1.85466,4.90415 0.80134,1.57808 2.20968,2.25356 4.24535,2.07613 1.03351,-0.0901 1.90142,-0.47839 2.61433,-1.17205 0.71232,-0.6931 1.23153,-1.64972 1.55523,-2.87249 0.35027,-1.25017 0.56079,-2.82806 0.62544,-4.72739 0.0924,-1.92863 0.0861,-3.89215 -0.0278,-5.88885 -0.13536,-2.37167 -0.34279,-4.41286 -0.63062,-6.1345 -0.28915,-1.74688 -0.75926,-3.30769 -1.42148,-4.6825 z"
         style="font-style:normal;font-variant:normal;font-weight:normal;font-stretch:normal;font-family:Elephant;-inkscape-font-specification:Elephant;fill:#262a3f;fill-opacity:1;stroke:#262a3f;stroke-opacity:1"
         id="path1164"
         inkscape:original-d="m 527.31298,286.29649 q 0,6.4 -4.84,10.72 -4.84,4.32 -11.44,4.32 -6.88,0 -11.52,-4.24 -4.6,-4.28 -4.6,-10.8 0,-6.72 4.72,-10.88 4.72,-4.16 11.4,-4.16 6.68,0 11.48,4.24 4.8,4.2 4.8,10.8 z m -12.16,-10.92 q -1.2,-3.36 -4.12,-3.36 -1.48,0 -2.56,0.96 -1.08,0.96 -1.68,2.8 -0.56,1.8 -0.84,4.68 -0.24,2.84 -0.24,5.84 0,4.12 0.32,6.72 0.32,2.6 1.2,5.08 0.88,2.48 3.8,2.48 1.48,0 2.56,-0.96 1.08,-0.96 1.64,-2.76 0.6,-1.84 0.84,-4.68 0.28,-2.88 0.28,-5.88 0,-3.56 -0.24,-6.16 -0.24,-2.64 -0.96,-4.76 z" />
      <path
         d="m 563.11242,175.88002 c -0.41791,-0.0659 -0.87846,-0.1404 -1.39141,-0.22399 -0.47812,-0.0762 -1.17802,-0.14404 -2.08904,-0.19574 -0.90738,-0.0779 -1.64834,0.0884 -2.21863,0.49292 -0.53407,0.38489 -0.92647,0.98821 -1.18068,1.80846 -0.15154,0.62256 -0.30279,1.24518 -0.45374,1.86787 l -4.37906,22.94399 c -1.6744,-0.31928 -3.35383,-0.615 -5.03755,-0.88721 -5.26008,-9.06223 -11.45778,-17.91151 -18.54167,-26.40238 -0.0632,-0.003 -0.12647,-0.007 -0.18971,-0.01 l -0.96341,18.65762 c 0,-1e-5 -0.0134,1.92215 -0.0134,1.92214 0.0398,0.88314 0.23257,1.54797 0.5755,1.99415 0.37151,0.44821 0.93137,0.76078 1.68081,0.94311 0.78024,0.15775 1.43235,0.27162 1.96379,0.33861 0.55712,0.0688 0.93584,0.12675 1.12826,0.16905 l -0.0522,0.63796 c -4.0181,-0.32854 -8.04842,-0.52667 -12.08127,-0.59492 l 0.0107,-0.63995 c 0.36542,-0.0205 0.77418,-0.0392 1.2242,-0.0554 0.45727,-0.0164 1.23271,-0.0896 2.37077,-0.20979 1.15763,-0.14473 1.86283,-1.01798 2.10958,-2.63563 0.0582,-0.63807 0.11674,-1.27611 0.17554,-1.91414 l 0.85258,-18.18236 c -0.003,-0.61422 -0.006,-1.22844 -0.009,-1.84267 -0.38781,-0.57865 -0.86042,-1.12002 -1.41883,-1.62243 -0.5584,-0.50241 -1.19073,-0.85857 -1.89421,-1.06668 -0.67117,-0.20711 -1.33089,-0.31726 -1.97645,-0.33083 -0.48417,-0.0102 -0.96837,-0.0187 -1.45258,-0.0256 l 0.009,-0.63997 c 6.18391,0.0881 12.36601,0.44285 18.52363,1.06549 5.17036,6.68811 9.82178,13.56186 13.93207,20.55838 0.0582,0.0108 0.11644,0.0215 0.17464,0.0324 l 2.33118,-12.54435 c 0.0859,-0.63496 0.17149,-1.26996 0.2568,-1.90501 0.0615,-0.85658 -0.0896,-1.5352 -0.45664,-2.03569 -0.33033,-0.52048 -0.91655,-0.91066 -1.75761,-1.16353 -0.83563,-0.27885 -1.52599,-0.4736 -2.06318,-0.58736 -1.19686,-0.25724 -0.2272,-0.0488 -1.42406,-0.30604 l 0.0976,-0.63252 c 4.61398,0.71295 9.20628,1.57857 13.7672,2.59739 z"
         style="font-style:normal;font-variant:normal;font-weight:normal;font-stretch:normal;font-family:Elephant;-inkscape-font-specification:Elephant;fill:#262a3f;fill-opacity:1;stroke:#262a3f;stroke-opacity:1"
         id="path1166"
         inkscape:original-d="m 565.07291,272.33649 q -0.52,0.04 -1.16,0.08 -0.6,0.04 -1.72,0.24 -1.12,0.16 -1.72,0.92 -0.56,0.72 -0.68,2 l -0.08,1.92 v 23.36 h -4.88 l -19,-24.32 h -0.16 v 18.68 l 0.08,1.92 q 0.12,1.32 0.64,1.96 0.56,0.64 1.64,0.84 1.12,0.16 1.88,0.2 0.8,0.04 1.08,0.08 v 0.64 h -11.52 v -0.64 q 0.52,-0.04 1.16,-0.08 0.64,-0.04 2.24,-0.28 1.64,-0.28 1.88,-2.72 l 0.08,-1.92 v -18.2 l -0.08,-1.84 q -0.52,-0.84 -1.24,-1.56 -0.72,-0.72 -1.6,-1 -0.84,-0.28 -1.64,-0.28 h -1.2 v -0.64 h 15.28 l 14.36,18.4 h 0.16 v -12.76 l -0.08,-1.92 q -0.12,-1.28 -0.68,-1.92 -0.52,-0.68 -1.6,-0.84 -1.08,-0.2 -1.76,-0.24 -0.64,-0.04 -1.2,-0.08 v -0.64 h 11.52 z" />
      <path
         d="m 571.13247,180.07447 c -0.18169,0.67658 -1.0369,1.93556 -2.5401,3.83733 -1.46678,1.90192 -2.49448,3.65707 -3.10959,5.23123 -0.23614,-0.0594 -0.47238,-0.11831 -0.70873,-0.1768 0.17707,-1.6003 0.0768,-3.62451 -0.34289,-6.05077 -0.39097,-2.42984 -0.53579,-3.9516 -0.38425,-4.60862 0.18563,-0.80478 0.80953,-1.44284 1.88371,-1.9001 1.07379,-0.45708 1.90195,-0.61017 2.46988,-0.4685 0.53627,0.13378 1.18325,0.6408 1.92398,1.52283 0.77254,0.89074 1.03604,1.7642 0.80799,2.6134 z"
         style="font-style:normal;font-variant:normal;font-weight:normal;font-stretch:normal;font-family:Elephant;-inkscape-font-specification:Elephant;fill:#262a3f;fill-opacity:1;stroke:#262a3f;stroke-opacity:1"
         id="path1168"
         inkscape:original-d="m 572.35291,274.49649 q 0,1.04 -1.24,4.36 -1.2,3.32 -1.48,5.84 h -0.64 q -0.28,-2.4 -1.52,-5.8 -1.2,-3.4 -1.2,-4.4 0,-1.24 1.16,-2.28 1.16,-1.04 1.88,-1.04 0.68,0 1.84,1 1.2,1 1.2,2.32 z" />
      <path
         d="m 595.25833,207.64029 c -1.10671,2.39957 -3.12179,3.85297 -5.96384,4.47257 -2.81258,0.60789 -5.43545,0.43208 -7.97293,-0.54242 -2.22758,-0.85548 -4.18911,-2.32734 -5.96677,-4.44809 -1.47046,-1.7837 -2.51354,-2.8688 -3.00217,-3.22845 0,0 0,0 0,0 -0.0984,-0.0724 -0.17677,-0.11757 -0.23489,-0.13568 -0.89838,-0.27992 -1.55464,-0.12803 -1.96326,0.44462 -0.4091,0.57332 -0.93231,1.58537 -1.56644,3.03843 -0.22655,-0.0673 -0.45325,-0.13412 -0.6801,-0.2005 l 4.01712,-13.74379 c 0.24536,0.0717 0.49057,0.14393 0.73564,0.21664 0.0111,0.47428 0.0418,1.66936 0.0668,2.90079 0.0469,1.14065 0.27639,2.51769 0.66824,4.14558 0,0 0,0 0,0 0.074,0.30774 0.15373,0.62416 0.23902,0.94944 0.57134,2.0267 1.52529,3.8788 2.84794,5.57483 1.35055,1.70679 3.11071,2.96233 5.32084,3.81418 1.274,0.49104 2.43429,0.58371 3.50133,0.26971 1.06595,-0.31368 1.78992,-0.90602 2.1597,-1.79265 0.44158,-1.0588 0.48829,-2.022 0.12654,-2.892 -0.36043,-0.8668 -1.23636,-1.91936 -2.64808,-3.12265 -1.40187,-1.22792 -2.91614,-2.51694 -4.54297,-3.85172 -1.62994,-1.33732 -3.31518,-2.92645 -5.09745,-4.77154 -0.0217,-0.022 -0.0432,-0.0442 -0.0644,-0.0664 -1.7353,-1.81188 -2.17752,-4.27892 -1.24926,-7.43807 0.70825,-2.41037 2.4106,-4.1573 5.18794,-5.15067 0,0 0,0 0,0 0.10798,-0.0386 0.21756,-0.076 0.32874,-0.11233 2.96845,-0.96872 6.09011,-0.88969 9.25245,0.25948 1.74899,0.63558 3.31962,1.6173 4.68698,2.93137 1.28722,1.33972 2.5485,2.69255 3.78334,4.05756 0.85673,0.36394 1.54295,0.31453 2.06533,-0.15649 0.53242,-0.4949 0.99384,-1.18139 1.37929,-2.06054 0.28437,0.12476 0.56845,0.25021 0.85224,0.37633 l -4.30313,9.68981 c -0.25442,-0.11301 -0.50909,-0.22545 -0.76401,-0.33732 0.0402,-0.4732 0.0536,-1.32063 0.028,-2.51908 0.003,-1.18782 -0.37938,-2.69419 -1.18359,-4.49962 -0.77556,-1.79501 -1.73219,-3.22959 -2.84663,-4.29396 -1.07406,-1.07695 -2.55024,-1.96672 -4.41629,-2.63966 -1.25436,-0.45235 -2.52904,-0.5575 -3.8072,-0.31568 -1.27893,0.24196 -2.06272,0.82883 -2.3639,1.73957 -0.31827,0.96241 -0.19191,1.90183 0.36304,2.82049 0.59372,0.90406 1.3246,1.71953 2.19386,2.45178 0.93877,0.77575 2.0967,1.69505 3.6891,2.97515 1.55178,1.24745 3.09696,2.63706 4.62104,4.16816 1.56357,1.51915 2.59804,3.27054 3.10803,5.22387 0.52094,1.92915 0.30838,3.86137 -0.58523,5.79892 z"
         style="font-style:normal;font-variant:normal;font-weight:normal;font-stretch:normal;font-family:Elephant;-inkscape-font-specification:Elephant;fill:#262a3f;fill-opacity:1;stroke:#262a3f;stroke-opacity:1"
         id="path1170"
         inkscape:original-d="m 600.27289,292.29649 q 0,3.96 -3.36,6.52 -3.32,2.52 -7.24,2.52 -3.44,0 -6.8,-2.16 -3.36,-2.2 -3.88,-2.2 -1.32,0 -1.64,1 -0.32,1 -0.6,3.36 h -0.68 v -14.32 h 0.68 q 0.24,0.84 0.8,2.76 0.6,1.92 2.16,4.6 1.6,2.64 4.16,4.4 2.6,1.76 6,1.76 1.96,0 3.2,-1.04 1.24,-1.04 1.24,-2.48 0,-1.72 -0.92,-2.72 -0.92,-1 -3.32,-1.92 -2.4,-0.96 -5.08,-2.04 -2.68,-1.08 -5.68,-2.92 -3,-1.8 -3,-6.8 0,-3.92 3.16,-6.64 3.16,-2.72 7.28,-2.72 2.28,0 4.44,1.08 l 4.16,2.32 q 1.16,0 1.52,-0.96 0.36,-1 0.36,-2.44 h 0.76 v 10.6 h -0.72 q -0.2,-0.68 -0.84,-2.32 -0.6,-1.64 -2.4,-3.68 -1.76,-2.04 -3.52,-2.92 -1.72,-0.92 -4.16,-0.92 -1.64,0 -3.04,0.96 -1.4,0.96 -1.4,2.4 0,1.52 1.04,2.56 1.08,1 2.44,1.6 1.4,0.6 3.84,1.52 2.44,0.92 5.04,2.16 2.64,1.2 4.32,3.56 1.68,2.32 1.68,5.52 z" />
      <path
         d="m 628.43335,218.69422 c 0.56394,0.28344 1.10704,0.42639 1.63245,0.42758 0.55254,0.001 1.08576,-0.15416 1.59976,-0.46841 1.00134,-0.61222 2.01769,-1.58422 3.0342,-2.92023 0.82342,-1.08224 1.37637,-2.30425 1.64011,-3.67471 0.12716,-0.57106 0.17293,-1.08406 0.13764,-1.53863 -0.0493,-0.63708 -0.25791,-1.15861 -0.62393,-1.56161 -0.60045,-0.67085 -1.21451,-1.24466 -1.83783,-1.72077 -0.36492,-0.27958 -1.23243,-0.94139 -1.59734,-1.22097 l -7.37631,10.6033 c 0.47353,0.3294 0.9454,0.66122 1.4156,0.99545 0.51108,0.33055 1.16841,0.68732 1.97565,1.079 z m -8.1749,13.70346 c -0.0189,-0.0141 -0.0377,-0.0283 -0.0566,-0.0424 -5.36847,-4.02681 -11.02029,-7.70029 -16.8962,-11.01265 l 0.31333,-0.55789 c 0.37571,0.21083 0.75051,0.42313 1.1244,0.6369 0.54627,0.2202 1.07295,0.44821 1.57977,0.68341 0.52024,0.21217 0.99273,0.26056 1.42041,0.14322 0.46476,-0.12577 0.9545,-0.53162 1.46711,-1.2184 0.3406,-0.51061 0.68148,-1.02105 1.02262,-1.53132 l 9.79048,-16.22939 c 0.28946,-0.54144 0.57864,-1.08305 0.86755,-1.62481 0.35775,-0.78063 0.45927,-1.41933 0.30251,-1.91702 -0.15658,-0.49715 -0.52349,-0.96375 -1.10122,-1.39479 -0.54953,-0.4145 -1.0798,-0.76712 -1.58856,-1.05825 -0.47084,-0.30038 -0.89011,-0.56777 -1.2782,-0.81662 l 0.31319,-0.55797 c 6.58966,3.68629 12.9718,7.76918 19.09584,12.24259 0.35927,0.2634 0.70528,0.52149 1.03795,0.77385 0,0 0,0 0,0 1.96757,1.49518 3.48459,2.80314 4.54265,3.85134 1.24313,1.23155 2.09319,2.47092 2.55581,3.69452 0.48769,1.24482 0.65514,2.44405 0.51306,3.59059 -0.12475,1.12748 -0.62466,2.17822 -1.48549,3.16166 -1.28217,1.46481 -2.70715,2.07299 -4.26735,1.86211 -1.53689,-0.19089 -2.89798,-0.58046 -4.09843,-1.18033 -1.16217,-0.60244 -2.47362,-1.48197 -3.96896,-2.63082 l -0.19496,0.25376 c 1.74921,1.34389 2.9962,2.45728 3.73338,3.26482 0.78311,0.8122 1.46062,1.72502 2.02729,2.73278 0.58987,1.02775 0.82841,2.24325 0.71098,3.63365 -0.0999,1.37229 -0.74025,2.69536 -1.89778,3.98664 -1.1209,1.25042 -2.36746,2.01411 -3.71908,2.31328 -1.35347,0.29959 -2.68039,0.25726 -3.99364,-0.12079 -1.29713,-0.39875 -2.65502,-1.12806 -4.10524,-2.18003 -1.4667,-1.06392 -2.69206,-1.94985 -3.76663,-2.75166 z m 0.72699,-0.90487 c 0.86038,0.37612 1.88593,0.10305 3.09154,-0.82065 1.22758,-0.90625 2.33805,-1.9862 3.31688,-3.25154 0.8809,-1.13874 1.47412,-2.45134 1.75471,-3.9485 0.25697,-1.20298 0.17752,-2.14135 -0.23267,-2.80761 -0.10128,-0.16449 -0.22267,-0.31229 -0.36403,-0.44321 -0.71234,-0.65975 -1.29626,-1.14855 -1.73662,-1.46537 -0.40079,-0.32112 -0.71531,-0.56114 -0.93642,-0.71788 -0.40706,-0.28855 -0.81539,-0.57529 -1.22496,-0.86021 l -8.08426,11.62095 c 0.13644,0.095 0.27272,0.19024 0.40883,0.28568 0.8212,0.57583 1.49456,1.0435 2.0528,1.41553 0.54173,0.33057 1.1571,0.64495 1.84779,0.94681 0,0 0,0 0,0 0.0353,0.0154 0.0708,0.0307 0.10641,0.046 z"
         style="font-style:normal;font-variant:normal;font-weight:normal;font-stretch:normal;font-family:Elephant;-inkscape-font-specification:Elephant;fill:#262a3f;fill-opacity:1;stroke:#262a3f;stroke-opacity:1"
         id="path1172"
         inkscape:original-d="m 630.95276,285.01649 q 1.68,-0.32 2.24,-1.96 0.56,-1.64 0.56,-4.16 0,-2.04 -0.76,-3.92 -0.72,-1.92 -1.84,-2.2 -1.08,-0.28 -2.04,-0.32 -0.92,-0.04 -1.64,-0.08 v 12.92 q 0.76,0 1.52,0 0.8,-0.04 1.96,-0.28 z m 1.44,15.88 -19.56,-0.04 v -0.64 h 1.24 q 0.84,-0.12 1.64,-0.2 0.8,-0.12 1.24,-0.6 0.48,-0.52 0.6,-1.8 l 0.08,-1.84 v -18.96 l -0.08,-1.84 q -0.12,-1.28 -0.6,-1.8 -0.48,-0.52 -1.36,-0.64 -0.84,-0.12 -1.56,-0.12 -0.68,-0.04 -1.24,-0.08 v -0.64 l 18.48,-0.04 q 3.76,0 5.88,0.28 2.12,0.28 3.52,1.24 1.44,0.96 2.24,2.4 0.8,1.4 0.8,3.36 0,2.92 -1.72,4.2 -1.68,1.28 -3.4,1.72 -1.68,0.4 -4.16,0.4 v 0.32 q 2.92,0 4.36,0.24 1.48,0.2 2.92,0.8 1.48,0.6 2.6,2.28 1.12,1.64 1.12,4.24 0,2.52 -1.16,4.2 -1.16,1.68 -2.96,2.52 -1.8,0.8 -4.4,0.92 -2.6,0.12 -4.52,0.12 z m 0.04,-1.16 q 1.32,-0.32 1.88,-2.52 0.6,-2.2 0.6,-4.6 0,-2.16 -0.92,-4.2 -0.88,-2.08 -2.16,-2.24 -1.28,-0.16 -2,-0.16 -0.68,-0.04 -1.04,-0.04 h -1.32 v 14.16 h 0.48 q 1.44,0 2.4,-0.04 0.96,-0.08 2.08,-0.36 z" />
      <path
         d="m 646.24691,255.64705 c 1.06624,1.27254 2.66421,2.08066 4.83992,2.48024 2.19156,0.4214 4.44342,0.59392 6.76218,0.5058 2.33581,-0.0648 4.69829,-0.24806 7.0839,-0.56028 0.13844,0.19733 0.27643,0.39498 0.41398,0.59293 l -11.72506,8.14722 c -6.12492,-8.81701 -13.23597,-16.97578 -21.13152,-24.28722 l 0.43487,-0.46957 c 0.15808,0.14639 0.38914,0.36097 0.66734,0.62172 0.32712,0.26934 0.79351,0.63693 1.43417,1.14007 0.67258,0.49797 1.25594,0.75262 1.75663,0.75874 0.50019,0.006 1.07221,-0.25348 1.71409,-0.78079 0.45191,-0.41562 0.90406,-0.83099 1.35644,-1.24612 l 13.38852,-13.48106 c 0.40954,-0.45768 0.81883,-0.91559 1.22787,-1.37374 0.53238,-0.67414 0.78372,-1.25059 0.75271,-1.73059 0.0109,-0.4755 -0.21302,-0.99478 -0.67467,-1.55269 -0.46139,-0.55759 -0.88435,-1.0165 -1.26428,-1.37642 -0.36373,-0.3815 -0.68794,-0.72183 -0.983,-1.03361 l 0.43642,-0.46813 c 5.81707,5.42335 11.2728,11.23378 16.3194,17.38643 l -0.49473,0.40587 c -0.71662,-0.81061 -1.44036,-1.61432 -2.17109,-2.41102 -0.69741,-0.69589 -1.28968,-1.07116 -1.76601,-1.13151 -0.4774,-0.0605 -1.07815,0.16388 -1.80346,0.67176 -0.48215,0.38036 -0.96409,0.76098 -1.4458,1.14186 l -17.54383,15.42078 c 0.81518,0.86659 1.62027,1.74311 2.41501,2.62933 z"
         style="font-style:normal;font-variant:normal;font-weight:normal;font-stretch:normal;font-family:Elephant;-inkscape-font-specification:Elephant;fill:#262a3f;fill-opacity:1;stroke:#262a3f;stroke-opacity:1"
         id="path1174"
         inkscape:original-d="m 666.15272,299.93649 q 2.4,0 4.76,-2.2 2.4,-2.2 4.2,-5.08 1.84,-2.88 3.32,-6.08 h 0.64 v 14.28 h -31.28 v -0.64 q 0.32,0 0.88,0 0.6,-0.04 1.76,-0.16 1.2,-0.16 1.72,-0.68 0.52,-0.52 0.64,-1.76 l 0.08,-1.84 v -19 l -0.08,-1.84 q -0.12,-1.28 -0.56,-1.76 -0.4,-0.52 -1.28,-0.64 -0.88,-0.12 -1.52,-0.12 -0.64,-0.04 -1.16,-0.08 v -0.64 h 19.36 v 0.64 l -2.64,0.12 q -1.2,0.12 -1.64,0.6 -0.44,0.48 -0.56,1.8 l -0.08,1.84 v 23.36 z" />
      <path
         d="m 697.27566,288.99776 c -0.17758,-0.38773 -0.37676,-0.82913 -0.60483,-1.33663 -0.21435,-0.47316 -0.54167,-1.11832 -0.98199,-1.92047 -0.42916,-0.77397 -0.98715,-1.2827 -1.66632,-1.52515 -0.66719,-0.21276 -1.41192,-0.19495 -2.23508,0.0489 -0.60164,0.21967 -1.20316,0.43965 -1.80456,0.65994 l -10.93381,4.6306 c -0.62512,0.23257 -1.25011,0.46546 -1.87497,0.69868 -3.55338,1.03058 -6.34398,1.05844 -8.35677,0.13195 -1.99677,-0.94118 -3.70467,-2.95719 -5.27261,-6.04025 -2.06571,-4.06181 -3.08895,-7.48747 -2.94256,-10.49764 0.0407,-0.83645 0.15113,-1.60946 0.33526,-2.31978 0.48018,-1.84505 1.45793,-3.27229 2.98567,-4.24429 l 13.29615,-8.45939 c 0.50027,-0.35619 1.00035,-0.71268 1.50023,-1.06945 0.6677,-0.54038 1.03953,-1.04761 1.11447,-1.52324 0.11496,-0.46213 -0.0579,-1.15019 -0.5283,-2.0573 -0.33446,-0.60408 -0.67263,-1.20639 -1.01446,-1.80688 l 0.53008,-0.35847 c 1.34615,1.98993 2.65214,4.00819 3.91664,6.05354 2.7807,4.51907 5.35171,9.14841 7.71568,13.8697 l -0.57181,0.28629 c -0.21534,-0.37018 -0.45715,-0.79112 -0.73484,-1.27594 -0.23737,-0.46474 -0.59967,-1.05225 -1.08829,-1.75383 -0.46549,-0.71464 -0.90801,-1.14467 -1.32035,-1.29271 -0.41275,-0.14818 -1.04001,-0.0483 -1.88267,0.29885 -0.55407,0.26395 -1.10799,0.5282 -1.66175,0.79275 l -14.08398,7.65202 c -0.2811,0.15272 -0.61344,0.34978 -0.99794,0.59129 -0.38582,0.24233 -0.96237,0.65318 -1.74001,1.23531 -0.73999,0.59392 -1.28994,1.53259 -1.67321,2.80574 -0.34688,1.28606 -0.14622,2.65455 0.58869,4.14178 1.02899,2.08232 2.25999,3.42646 3.76698,4.0372 1.53982,0.62404 3.0589,0.84283 4.56356,0.62645 1.51738,-0.19019 2.7574,-0.46821 3.72541,-0.8527 0.58112,-0.23406 1.1623,-0.46797 1.74355,-0.70173 l 10.65076,-4.5796 c 0.57509,-0.2818 1.15004,-0.5639 1.72484,-0.84631 0.76991,-0.43622 1.27306,-0.95128 1.50708,-1.54849 0.24672,-0.56685 0.2417,-1.27575 -0.0212,-2.12152 -0.23831,-0.85585 -0.47226,-1.55767 -0.69456,-2.10088 -0.22215,-0.54285 -0.4346,-1.05852 -0.63383,-1.54078 l 0.57792,-0.27382 c 2.06305,4.351 3.95412,8.77478 5.67523,13.25739 z"
         style="font-style:normal;font-variant:normal;font-weight:normal;font-stretch:normal;font-family:Elephant;-inkscape-font-specification:Elephant;fill:#262a3f;fill-opacity:1;stroke:#262a3f;stroke-opacity:1"
         id="path1176"
         inkscape:original-d="m 714.59264,272.33649 q -0.52,0.04 -1.2,0.08 -0.64,0.04 -1.76,0.2 -1.08,0.16 -1.68,0.96 -0.56,0.8 -0.68,2.08 l -0.08,1.92 v 11.88 l -0.08,2 q -0.6,5.52 -3,7.72 -2.4,2.16 -7.44,2.16 -6.64,0 -10.24,-2.52 -3.6,-2.52 -3.6,-6.28 v -15.76 l -0.08,-1.84 q -0.12,-1.28 -0.56,-1.76 -0.4,-0.52 -1.64,-0.68 l -1.68,-0.16 v -0.64 h 18.72 v 0.64 q -0.52,0.04 -1.2,0.08 -0.64,0 -1.68,0.16 -1.04,0.12 -1.44,0.56 -0.4,0.44 -0.52,1.8 l -0.08,1.84 v 16.04 q 0,0.48 0.04,1.16 0.04,0.68 0.24,2.12 0.24,1.4 1.6,2.8 1.4,1.36 3.8,1.36 3.36,0 5.04,-1.68 1.72,-1.72 2.28,-3.92 0.6,-2.2 0.64,-3.76 l 0.04,-1.88 v -11.6 l -0.08,-1.92 q -0.12,-1.32 -0.68,-2 -0.52,-0.68 -1.6,-0.84 -1.08,-0.2 -1.8,-0.24 -0.72,-0.04 -1.36,-0.08 v -0.64 h 11.76 z" />
      <path
         d="m 676.30576,313.82268 c 0.34187,1.12478 0.66732,2.28435 0.97456,3.47808 0.33318,1.18748 0.73597,2.42916 1.20576,3.73279 0.49713,1.30106 2.15352,2.65195 4.97453,4.18817 2.8463,1.53042 5.62917,2.60082 8.38261,3.14307 0.0421,0.23554 0.0837,0.47115 0.1249,0.70682 l -12.53053,2.18808 c -1.90515,-10.81518 -4.76798,-21.44855 -8.62686,-31.63371 l 0.59819,-0.22724 c 0.12826,0.3385 0.28731,0.72396 0.47676,1.15881 0.21413,0.42492 0.44649,0.90447 0.69453,1.43706 0.2827,0.55013 0.62385,0.91769 1.02772,1.10244 0.43775,0.20211 1.07407,0.20454 1.90794,0.005 0.58882,-0.17421 1.17773,-0.34812 1.76674,-0.52175 l 17.91918,-6.20322 c 0.56925,-0.23069 1.1384,-0.46167 1.70743,-0.69293 0.77494,-0.37059 1.26208,-0.79579 1.46043,-1.27761 0.19814,-0.4813 0.21512,-1.0734 0.0473,-1.77308 -0.15671,-0.66899 -0.33824,-1.27839 -0.54266,-1.82705 -0.16923,-0.53108 -0.32036,-1.00525 -0.45904,-1.44409 l 0.59801,-0.2277 c 4.47762,11.73327 7.79279,23.86645 9.98145,36.15004 l -11.65503,2.0909 c -0.0432,-0.24111 -0.0869,-0.48216 -0.13095,-0.72313 2.65782,-2.07516 4.75094,-4.4616 6.25137,-7.15833 1.52544,-2.70036 2.1351,-4.89931 1.8813,-6.50307 -0.24573,-1.56982 -0.50586,-2.89778 -0.76215,-3.96758 -0.25347,-1.05809 -0.44298,-1.79366 -0.53433,-2.12334 -0.039,-0.14068 -0.0781,-0.28133 -0.11741,-0.42194 -4.22349,1.1453 -8.44641,2.29263 -12.66875,3.44201 0.19721,0.60607 0.39139,1.21329 0.58251,1.8216 0.61082,1.65633 1.6288,2.75882 3.08608,3.31641 1.48847,0.5802 3.08991,0.68109 4.80244,0.27189 0.0693,0.2902 0.13797,0.58056 0.20596,0.87105 l -14.18513,3.32187 c -0.0631,-0.26916 -0.12674,-0.53817 -0.19101,-0.80703 1.73918,-0.41557 3.15584,-1.20367 4.23794,-2.39323 1.08777,-1.15898 1.49358,-2.61786 1.19335,-4.35242 -0.13881,-0.61929 -0.28078,-1.23801 -0.42594,-1.85611 z"
         style="font-style:normal;font-variant:normal;font-weight:normal;font-stretch:normal;font-family:Elephant;-inkscape-font-specification:Elephant;fill:#262a3f;fill-opacity:1;stroke:#262a3f;stroke-opacity:1"
         id="path1178"
         inkscape:original-d="m 729.59261,300.05649 q 1.68,-0.04 3.44,-0.04 1.76,-0.04 3.72,-0.28 1.96,-0.28 4.84,-3.96 2.88,-3.72 4.24,-7.64 h 0.64 v 12.72 h -31.44 v -0.64 q 0.52,0 1.2,-0.04 0.68,-0.08 1.52,-0.16 0.88,-0.12 1.32,-0.6 0.48,-0.52 0.6,-1.8 l 0.08,-1.84 v -18.96 l -0.08,-1.84 q -0.12,-1.28 -0.6,-1.8 -0.48,-0.52 -1.36,-0.64 -0.84,-0.12 -1.56,-0.12 -0.68,-0.04 -1.24,-0.08 v -0.64 h 30.76 v 11.84 h -0.64 q -2.04,-4.48 -4.96,-7.52 -2.92,-3.08 -4.92,-3.28 -1.96,-0.2 -3.32,-0.24 -1.36,-0.04 -1.8,-0.04 h -0.36 l -0.08,13.12 1.68,-0.08 q 2.32,-0.24 3.48,-2.16 1.2,-1.96 1.2,-4.6 h 0.76 v 14.56 h -0.76 q 0,-2.68 -1.2,-4.68 -1.16,-2 -3.48,-2.24 l -1.68,-0.08 z" />
    </g>
    <text
       xml:space="preserve"
       id="text1146"
       style="line-height:1.25;font-family:sans-serif;font-size:40px;word-spacing:0px;white-space:pre;shape-inside:url(#rect1148);" />
  </g>
</svg>
